<svg width="313" height="200" viewBox="0 0 313 200" fill="none" xmlns="http://www.w3.org/2000/svg">
<path fill-rule="evenodd" clip-rule="evenodd" d="M153.44 80.1095C140.943 79.1085 129.019 83.7985 119.031 91.1084C106.157 100.53 95.2453 114.004 87.8595 128.202C87.0738 128.811 86.2998 129.436 85.5312 130.066C81.4205 133.439 77.4045 137.001 73.8447 140.965C71.8572 143.178 66.6444 148.559 68.9075 151.954C69.3878 152.674 70.1765 153.088 70.9665 153.373C73.1814 154.172 75.4903 154.577 77.6747 155.511C80.3713 156.664 83.1674 158.279 84.895 160.741C85.3864 161.441 85.5145 162.267 86.175 162.576C86.8754 162.903 88.1959 162.775 88.9615 162.851C90.5005 163.003 92.0397 163.155 93.579 163.307C97.195 163.664 100.975 163.703 104.512 164.582L120.785 168.629C124.114 169.456 127.939 169.912 131.096 171.273C135.806 173.303 140.299 176.275 144.806 178.724C146.985 179.909 149.165 181.093 151.344 182.278C152.409 182.856 153.137 182.864 154.384 182.961L163.385 183.658C164.837 183.77 165.534 184.359 165.724 182.896L167.816 166.81L168.922 158.303C168.988 157.797 168.969 155.291 169.38 154.989C169.639 154.799 171.154 155.207 171.434 155.242L175.519 155.746C178.462 156.109 181.404 156.472 184.346 156.834C184.585 156.864 185.908 156.848 186.056 157.045C186.23 157.276 185.899 158.598 185.87 158.883C185.558 161.87 185.245 164.857 184.933 167.844C184.897 168.19 184.479 169.797 184.699 170.081C184.852 170.278 185.961 170.302 186.186 170.339C189.024 170.806 191.862 171.272 194.7 171.739C196.733 172.073 199.389 172.056 201.311 172.826C202.414 173.268 203.506 174.398 204.459 175.104L218.302 185.362C220.401 186.918 223.231 186.522 225.788 186.718L255.281 188.98C255.256 188.056 255.232 187.131 255.207 186.205C255.077 181.306 254.948 176.407 254.818 171.508L254.648 165.1C254.638 164.694 254.798 163.508 254.535 163.208C254.185 162.81 252.622 162.638 252.136 162.493C250.508 162.007 248.881 161.522 247.253 161.037C242.478 159.614 237.703 158.19 232.929 156.767C228.209 155.361 223.49 153.954 218.771 152.547C217.156 152.066 215.542 151.584 213.927 151.103C213.554 150.992 212.252 150.844 211.992 150.526C211.666 150.126 211.812 148.419 211.76 147.912C211.503 145.436 211.138 142.972 210.693 140.524C207.485 122.868 199.987 104.934 186.083 93.1553C176.892 85.3691 165.363 81.0644 153.44 80.1095ZM151.236 115.516C152.473 114.053 154.552 111.667 156.738 112.063C158.514 112.385 159.482 114.602 160.101 116.077C162.59 122.002 163.362 128.794 164.136 135.127C164.622 139.101 165.012 143.092 165.262 147.088C156.397 146.401 147.531 145.714 138.665 145.027C139.084 142.182 139.419 139.311 139.923 136.48C140.176 135.061 140.874 133.784 141.471 132.473C144.141 126.609 147.056 120.458 151.236 115.516Z" fill="#FD4300"/>
<path fill-rule="evenodd" clip-rule="evenodd" d="M28.1682 0L27.9514 0.00378277C22.068 0.16142 16.8796 3.97401 12.8556 8.00891C10.8658 10.004 9.05124 12.3507 8.19736 15.0814C7.2113 18.2358 7.53577 21.7055 8.28598 24.8714C9.9433 31.8677 11.9689 38.9 14.2466 45.7185C15.3675 49.0727 16.9927 52.3615 17.8386 55.7945C18.5359 58.6229 15.5992 60.6829 15.4869 63.5894C15.3735 66.5216 17.3325 69.2762 20.0244 70.324C21.1709 70.7703 22.558 70.3975 23.6149 70.8549C24.5816 71.2729 24.92 72.5067 25.1057 73.4539C25.3586 74.7456 25.313 76.0364 25.2411 77.3396C25.197 78.1368 25.3943 79.438 25.008 80.1491C24.7428 80.6375 24.2595 80.7971 23.843 81.1313C23.2748 81.5873 22.8961 82.1549 22.3978 82.679C21.5763 83.544 20.7859 84.0125 20.5629 85.2743C20.4441 84.9877 20.3254 84.701 20.207 84.4147C19.5945 85.5428 19.1407 86.0837 19.723 87.1545C17.9165 86.976 16.8462 90.2762 16.3726 91.5279C15.5053 93.8184 14.9096 96.1984 14.0403 98.4902C12.8489 101.633 11.2835 104.733 10.5233 108.021C9.88477 110.785 9.37939 113.623 8.8118 116.405C8.49203 117.972 8.21341 119.563 7.62842 121.057C7.40097 121.637 6.97885 122.028 6.71729 122.545C6.35974 123.252 6.49954 123.626 6.48248 124.401C6.45239 125.783 5.58679 126.68 5.31451 128.022C5.02386 129.456 4.78638 130.906 4.49304 132.343C3.90201 135.237 2.80728 138.128 2.54373 141.06C2.23767 144.464 1.58112 147.827 1.25098 151.232C0.962006 154.208 1.453 157.402 0.835907 160.281C0.288727 162.835 0.967041 165.172 1.20853 167.708C1.26974 168.352 0.284698 172.187 1.86774 171.451C1.5704 172.355 1.15366 172.785 1.13126 173.777C1.1105 174.705 1.34799 175.658 1.54196 176.558C1.9166 178.296 2.16611 180.19 2.89993 181.818C3.72977 183.66 4.99442 183.881 6.71362 184.513C7.87759 184.94 9.97339 186.467 10.8905 184.834C11.4374 186.51 12.505 185.352 13.7018 185.258C13.6938 185.258 14.3868 185.516 14.5166 185.534C14.9373 185.591 15.4347 185.391 15.8535 185.356C16.8973 185.269 17.9215 185.41 18.9427 185.622C21.2957 186.113 23.5721 186.793 25.9599 187.135C30.6242 187.803 35.1951 187.487 39.866 187.78C49.0072 188.352 58.2995 187.872 67.4478 187.624C68.4298 187.597 69.488 187.736 70.457 187.584C71.5016 187.42 71.7294 186.922 72.5431 186.423C73.8961 185.595 75.3972 186.401 76.8006 186.703C80.9214 187.592 85.2247 187.657 89.3782 188.516C97.817 190.262 105.592 193.706 113.675 196.611C117.18 197.87 121.293 199.91 125.072 199.998C129.651 200.098 128.57 195.556 127.728 192.636C130.374 193.343 134.529 196.575 137.219 194.699C140.424 192.464 136.346 188.748 136.154 186.121C141.882 187.318 148.38 189.945 154.195 187.81C155.314 187.399 156.287 186.531 157.488 186.39C158.737 186.243 160.057 186.687 161.319 186.679C164.195 186.661 166.988 186.276 169.862 186.632C176.272 187.427 182.59 187.862 189.052 188.034C195.557 188.206 202.062 188.594 208.57 188.578C211.873 188.57 215.237 188.175 218.534 188.352C219.828 188.421 222.614 189.368 223.524 188.044C224.437 189.146 225.212 188.409 226.384 188.532C226.167 188.509 226.994 188.991 227.118 189.037C227.734 189.268 228.31 189.198 228.953 189.191C230.665 189.173 232.265 189.98 233.969 189.902C234.399 189.883 234.725 189.756 235.091 189.607C235.177 189.572 235.157 189.197 235.296 189.166C236.129 188.978 235.914 189.492 236.443 189.751C237.029 190.038 237.897 189.573 237.564 190.457C239.155 190.386 240.663 190.926 242.112 189.976C241.427 191.5 243.819 190.234 244.444 190.209C245.483 190.167 246.393 190.69 247.429 190.811C248.671 190.955 249.92 190.374 251.136 190.729C252.088 191.006 252.415 191.673 253.406 191.332C254.248 191.042 254.774 190.413 255.183 189.725C255.747 188.775 255.819 188.351 257.179 188.335C258.188 188.322 259.201 188.541 260.22 188.539C261.386 188.536 262.668 188.412 263.733 188.97C264.88 189.572 265.554 190.488 266.827 190.959C272.548 193.077 278.829 192.517 284.799 192.481C287.317 192.465 289.166 192.699 289.873 189.806C290.47 187.361 290.709 184.805 291.279 182.34C291.978 179.321 292.745 176.519 294.295 173.819C295.798 171.201 297.063 168.496 298.372 165.777C301.094 160.121 304.882 155.308 309.107 150.712C310.712 148.965 312.551 147.02 312.626 144.505C312.68 142.334 311.731 140.084 310.485 138.354C309.372 136.81 307.539 135.068 305.466 135.428C304.217 135.645 303.399 136.659 302.467 137.42C301.448 138.251 300.339 138.818 299.111 139.271C296.249 140.329 293.849 141.486 291.37 143.311C288.862 145.158 286.517 147.226 284.348 149.465C280.184 153.765 275.917 158.232 273.525 163.799C272.582 165.993 271.98 168.108 271.337 170.382C270.705 172.615 268.986 172 267.053 171.679C264.697 171.288 262.329 171.078 259.957 170.83C259.065 170.736 257.806 170.709 257.268 169.859C256.676 168.923 257.355 167.709 257.409 166.737C257.437 166.218 257.266 165.836 257.224 165.329C257.174 164.754 257.343 164.228 257.344 163.655C257.345 162.422 256.772 161.324 255.819 160.577C254.038 159.179 251.439 158.346 249.329 157.577C246.449 156.527 243.363 156.011 240.397 155.261C237.057 154.417 233.697 153.656 230.34 152.89C227.04 152.137 223.746 151.362 220.411 150.782C218.455 150.442 216.334 150.566 214.437 149.944C212.422 149.283 212.756 147.241 212.762 145.432C212.772 142.445 212.405 139.369 211.97 136.415C211.046 130.136 208.844 123.991 206.842 117.99C204.913 112.211 202.524 106.664 198.58 101.974C194.741 97.408 190.028 93.2761 185.14 89.8832C180.046 86.3478 174.379 83.7936 169.062 80.6375C170.224 79.7425 171.61 78.9789 172.278 77.6006C173.031 76.0448 172.712 74.1845 172.68 72.5215C172.644 70.6447 172.587 68.9973 171.921 67.2094C171.557 66.2302 170.149 64.3729 170.365 63.3082C170.726 61.5203 174.61 60.2144 176.04 59.4788C178.283 58.3248 180.531 57.1526 182.598 55.6958C184.582 54.2983 186.448 52.6162 187.65 50.4709C187.991 49.8622 188.271 49.2229 188.489 48.5594C188.731 47.819 188.562 47.5667 189.297 47.5125C190.47 47.4256 192.228 48.6112 193.217 49.135C198.312 51.8354 203.909 55.4695 209.921 55.2283C212.103 55.141 214.555 54.4509 215.326 52.1597C216.342 49.1434 214.222 46.0274 212.361 43.8488C215.99 44.4231 222.681 46.218 225.545 42.9575C227.453 40.785 226.014 37.3365 224.414 35.4526C222.3 32.9641 219.286 31.449 216.501 29.8656C219.918 28.5539 223.7 27.7152 226.704 25.5204C229.577 23.4216 229.222 20.1972 226.953 17.7214C224.526 15.075 220.284 13.7196 216.947 12.737C212.855 11.5318 208.789 11.6285 204.571 11.7093C197.002 11.8542 190.5 14.664 184.292 18.9121C181.01 21.1585 177.774 23.5826 174.863 26.3032C172.132 28.8547 169.219 31.2274 166.529 33.8065C163.922 36.3054 161.871 39.4016 159.12 41.7362C156.78 43.7211 154.215 46.5347 151.243 47.4158C148.091 48.3502 145.254 49.8956 142.076 50.8154C138.47 51.8586 135.373 53.6031 132.032 55.2674C118.009 62.2519 102.955 66.7974 88.1714 71.8118C80.6096 74.3765 72.9977 76.1842 65.2777 78.1429C61.4008 79.1265 57.8009 79.6512 53.8002 79.4734C52.8777 79.4326 51.9967 79.4084 51.087 79.5374C50.42 79.6317 49.9129 79.8857 49.3166 79.4842C48.4597 78.9075 48.1375 77.4066 47.6268 76.552C50.4738 75.6632 53.261 74.7015 54.5601 71.7633C55.3786 69.9118 55.8034 67.7523 56.1623 65.7657C56.3549 64.6966 56.3593 63.6177 56.5238 62.548C56.6141 61.9572 56.8931 61.3397 56.8717 60.7361C56.9356 61.072 59.0571 59.9675 59.3649 59.7624C60.5519 58.9705 60.768 57.3742 60.7583 56.0269C60.7469 54.5051 60.2907 52.8324 59.2645 51.6784C58.7789 51.1321 58.2009 50.7225 57.4948 50.5167C56.9938 50.3705 56.3329 50.5618 55.891 50.4146C53.931 49.7622 53.7116 44.8778 53.4336 43.0997C52.8209 39.1816 52.2104 35.4411 50.8879 31.6855C48.4767 24.8384 45.3734 18.1839 41.6772 11.9498C38.5101 6.60792 35.346 0.0761916 28.3825 0H28.1682ZM88.3658 164.482C91.1844 164.973 93.8846 165.977 96.6072 166.828C99.1499 167.623 101.727 168.129 104.336 168.646C109.527 169.674 114.832 170.616 119.948 171.957C121.389 172.334 122.147 173.187 123.404 173.779C124.336 174.218 125.21 173.773 126.18 173.736C128.29 173.655 130.631 174.348 132.661 174.865C137.452 176.084 141.703 178.201 146.039 180.542C146.427 180.751 149.05 181.96 148.926 182.46C148.825 182.869 145.49 181.772 144.96 181.691C142.275 181.279 139.652 180.426 136.986 179.897C134.798 179.462 132.586 179.167 130.407 178.685C127.983 178.148 122.819 176.28 122.614 180.313C122.392 184.671 127.17 186.011 130.043 188.044C129.723 188.6 125.114 186.766 124.543 186.581C122.583 185.944 120.766 184.798 118.77 184.309C115.299 183.459 115.72 187.32 117.636 189.038C119.765 190.945 123.287 191.522 124.466 194.458C122.917 195.021 120.893 193.964 119.471 193.439C117.603 192.75 115.728 192.071 113.849 191.413C109.631 189.937 105.625 187.904 101.384 186.497C92.6842 183.613 83.4878 182.786 74.3928 182.273C75.2032 179.107 76.0896 175.96 76.8177 172.773C77.1294 171.409 77.4147 170.039 77.6509 168.66C77.8151 167.7 77.6753 165.405 78.3315 164.648C79.1306 163.727 81.2117 165.021 82.3442 164.997C83.4537 164.972 84.2631 164.396 85.2883 164.214C86.2616 164.041 87.4135 164.315 88.3658 164.482ZM251.842 182.807C251.842 184.321 252.102 186.156 250.125 186.333C248.527 186.476 245.399 186.66 244.124 185.515C245.346 184.915 246.735 184.811 248.033 184.465C249.386 184.104 250.634 183.512 251.842 182.807ZM219.215 155.232C219.816 155.237 220.831 155.91 221.379 156.098C222.383 156.441 223.403 156.731 224.428 157.005C227.507 157.826 231.472 157.954 232.886 161.282C233.591 162.944 234.081 167.216 236.533 167.2C238.713 167.186 240.018 164.018 241.573 162.89C243.18 161.726 245.728 162.518 247.462 163.024C249.223 163.538 251.956 164.197 251.759 166.445C251.616 168.061 251.327 169.532 251.341 171.183C251.358 173.285 251.534 175.382 251.534 177.483C250.297 175.777 249.219 172.347 247.028 171.661C244.815 170.968 243.563 174.862 242.987 176.354C242.274 178.204 241.377 180.301 241.322 182.305C241.305 182.934 241.685 184.663 241.25 185.18C240.864 185.64 239.381 185.306 238.902 185.256C235.935 184.945 232.985 184.558 230.009 184.299C228.481 184.166 228.065 183.828 228.214 182.173C228.331 180.872 228.368 179.633 228.206 178.328C227.484 172.5 223.92 167.17 217.895 166.158C214.264 165.548 210.024 165.994 206.399 166.58C205.002 166.805 203.485 167.487 202.066 167.427C201.017 167.384 201.355 167.324 201.14 166.33C200.99 165.635 200.669 165.042 200.144 164.56C199.729 164.18 199.203 164.395 198.812 163.897C198.529 163.537 198.571 163.047 198.438 162.632C198.177 161.824 197.706 160.735 196.769 160.531C195.26 160.202 193.656 162.237 192.895 163.286C192.108 164.371 191.87 167.61 190.605 168.034C189.145 168.523 187.408 166.596 187.103 165.382C186.694 163.749 187.21 161.982 187.456 160.365C187.474 160.249 187.546 159.175 187.625 159.105C187.838 158.916 189.443 158.969 189.727 158.954C191.126 158.887 192.527 158.884 193.926 158.88C199.414 158.867 204.79 158.323 210.241 157.744C209.449 159.044 208.094 161.178 209.485 162.55C210.516 163.567 212.377 163.057 213.672 163.266C215.502 163.562 218.586 165.31 220.33 164.032C222.787 162.23 220.007 159.134 219.095 157.431C218.9 157.066 218.175 155.781 218.482 155.353C218.748 154.982 218.826 155.229 219.215 155.232ZM260.137 175.26C261.391 175.645 262.655 176.016 263.937 176.301C265.44 176.636 267.772 176.311 268.503 177.977C269.06 179.243 268.783 181.286 268.331 182.548C267.813 183.992 266.598 184.364 265.164 184.474C263.49 184.603 261.795 184.331 260.141 184.101C259.489 184.01 258.794 183.846 258.131 183.845C257.738 183.844 256.945 184.206 256.595 183.91C256.143 183.526 256.441 181.347 256.476 180.824C256.564 179.53 256.808 178.254 256.875 176.958C256.922 176.027 256.574 174.763 257.657 174.564C258.332 174.441 259.55 175.08 260.137 175.26ZM158.824 149.648C159.762 149.812 160.694 149.928 161.646 149.914C162.233 149.905 162.935 149.704 163.477 150.028C164.479 150.627 164.329 152.203 164.295 153.187C164.254 154.381 164.15 155.593 164.023 156.78C163.903 157.916 163.284 159.786 164.158 160.76C164.774 160.08 165.078 157.859 166.268 157.94C167.576 158.029 166.971 160.134 166.855 160.888C166.214 165.055 165.483 169.224 164.91 173.403C164.638 175.39 164.286 177.362 164.104 179.358C163.982 180.698 163.941 181.905 162.454 182.182C161.076 182.44 159.527 182 158.134 181.967C156.7 181.932 155.878 181.834 155.053 180.529C157.029 180.093 160.159 180.359 161.272 178.255C162.569 175.8 159.832 173.591 158.485 171.913C157.451 170.624 155.337 166.339 153.418 168.884C152.727 169.8 152.602 171.199 152.254 172.264C151.686 173.996 150.993 175.703 150.312 177.392C144.088 174.156 137.701 171.239 130.913 169.422C132.644 166.477 134.786 163.824 136.081 160.632C137.533 157.053 138.736 153.378 140.22 149.811C142.573 151.194 145.088 147.841 147.431 147.706C151.132 147.493 155.195 149.015 158.824 149.648ZM195.694 173.771C196.984 174.545 198.882 176.05 199.192 177.606C199.727 180.297 196.678 178.498 195.737 177.909C193.767 176.677 191.836 176.283 189.574 177.043C186.672 178.016 183.998 179.66 180.883 178.412C179.333 177.79 175.896 176.461 176.823 174.077C177.463 172.434 179.334 173.844 180.323 174.433C182.913 175.975 185.057 174.998 187.645 173.885C190.232 172.771 193.146 172.243 195.694 173.771ZM287.592 159.965C288.628 161.444 286.522 161.124 285.598 161.268C283.664 161.569 281.673 163.122 282.206 165.319C282.726 167.46 284.761 168.799 285.149 171.048C285.482 172.978 285.161 175.422 283.309 176.482C282.269 177.077 279.997 177.323 278.95 176.639C277.352 175.595 279.337 174.04 280.394 173.523C281.795 172.837 282.927 172.466 282.233 170.665C281.388 168.47 279.746 166.786 279.892 164.274C280.013 162.193 281.103 159.828 283.091 158.964C284.513 158.345 286.622 158.58 287.592 159.965ZM146.154 153.586C144.363 153.509 144.292 155.688 144.383 156.76C144.506 158.225 144.242 159.787 144.211 161.257C144.171 163.205 143.766 169.581 147.185 168.634C149.384 168.025 151.193 165.903 152.961 164.54C154.587 163.285 158.721 161.779 158.989 159.4C159.292 156.713 156.032 156.21 154.164 155.783C151.498 155.173 148.909 153.705 146.154 153.586ZM154.878 82.7535C157.718 83.0293 160.542 83.4541 163.244 84.4039C165.073 85.0466 167.881 85.5074 169.177 87.0844C170.298 88.4483 169.812 90.3925 170.176 92.0039C170.669 94.1838 172.164 93.8857 173.613 92.5246C175.347 90.895 175.849 89.7151 178.264 91.2443C183.262 94.4098 187.226 99.0834 191.191 103.413C188.125 104.348 182.11 104.574 181.091 108.432C180.535 110.541 182.213 112.076 183.721 113.227C185.668 114.713 187.7 116.088 189.604 117.634C191.381 119.076 195.366 124.82 196.493 119.77C197.192 116.644 195.884 113.414 196.439 110.325C198.85 114.24 201.298 118.145 203.508 122.18C205.39 125.615 206.484 129.288 207.386 133.086C205.979 133.178 204.515 132.459 203.124 132.884C201.785 133.293 201.158 134.569 201.064 135.891C200.904 138.132 201.932 140.413 202.449 142.565C202.804 144.043 203.211 147.397 204.999 147.878C207.036 148.426 208.315 145.27 209.224 143.987C210.089 145.326 210.074 147.285 210.201 148.82C210.287 149.875 210.872 151.848 209.693 152.431C208.59 152.977 206.264 152.293 205.084 152.243C202.896 152.149 200.664 151.971 198.475 152.036C196.406 152.097 193.362 153.211 192.554 150.651C192.004 148.907 191.52 142.643 188.585 146.042C187.281 147.551 186.262 149.272 185.002 150.81C183.732 152.361 182.577 152.462 180.68 152.384C176.924 152.229 173.257 152.955 169.583 153.542C166.358 154.056 166.782 151.3 166.829 148.846C166.903 145.043 166.154 141.066 165.745 137.284C164.774 128.29 162.781 119.405 159.714 110.899C162.279 110.019 166.878 113.568 168.775 110.873C170.334 108.657 168.331 105.604 167.516 103.533C166.499 100.948 165.984 98.248 164.325 95.9576C163.802 95.2344 163.057 94.2653 162.043 94.5089C161.174 94.718 160.827 95.835 160.338 96.4652C158.785 98.4653 156.8 99.9652 155.42 102.147C154.575 103.481 153.918 104.908 153.644 106.474C153.568 106.905 153.664 107.787 153.363 108.149C152.43 109.269 149.489 109.252 148.181 109.939C143.719 112.284 142.151 119.111 140.418 123.416C139.929 124.628 139.445 125.844 139.186 127.129C139.012 127.988 139.021 129.08 138.558 129.85C137.548 131.532 134.411 130.03 132.872 129.769C130.291 129.333 127.723 128.917 125.132 128.55C123.552 128.327 121.251 127.75 120.046 129.16C118.798 130.622 119.516 132.925 120.143 134.494C121.166 137.054 122.473 139.5 123.553 142.037C124.414 144.061 124.843 146.668 126.498 148.227C127.931 149.578 130.304 149.966 131.992 148.866C132.955 148.238 135.428 142.168 136.08 142.439C134.902 147.128 133.175 151.909 131.35 156.384C130.79 157.758 129.828 160.561 128.412 161.307C127.238 161.925 124.575 160.757 123.374 160.53C122.236 160.316 119.988 159.385 118.9 160.067C117.58 160.894 117.419 163.1 117.271 164.47C117.161 165.485 117.361 166.243 116.134 166.193C115.27 166.157 114.397 165.733 113.568 165.519C111.642 165.025 109.644 164.697 107.683 164.378C103.15 163.641 98.6174 162.906 94.0856 162.15C90.1896 161.5 86.3445 161.504 82.8242 159.643C81.0398 158.7 78.9941 158.412 77.094 157.781C75.2095 157.155 73.3311 156.75 71.3587 156.514C67.0477 156.001 62.8527 155.498 58.5922 154.619C56.2606 154.137 53.9333 153.633 51.6141 153.094C49.5497 152.614 47.5539 151.851 45.4996 151.381C43.7904 150.989 42.3866 151.283 41.6544 149.33C41.1293 147.929 41.2514 146.359 41.1166 144.893C40.5002 138.194 42.8298 131.456 43.3064 124.794C43.4609 122.636 43.5085 120.471 43.6693 118.315C43.7429 117.327 43.6984 114.451 44.843 113.918C44.947 114.709 44.8661 116.038 45.7574 116.43C45.322 116.238 45.8936 118.572 45.9243 118.807C46.0461 119.738 45.7424 120.735 45.9026 121.649C45.7755 121.971 45.831 122.213 46.0685 122.376C46.2304 122.508 46.3484 122.675 46.4221 122.877C46.4334 123.529 46.2438 123.145 46.2347 123.37C46.1451 125.612 46.5214 127.936 46.3605 130.233C46.1902 132.66 45.6521 135.041 45.2433 137.436C44.8764 139.585 44.4811 141.738 44.175 143.897C43.9603 145.412 43.8011 147.151 44.6105 148.53C46.1474 151.148 50.597 150.863 53.1884 151.292C57.4958 152.004 61.8092 152.646 66.1323 153.251C67.7919 153.483 69.4716 154.013 71.1507 154.04C72.9445 154.068 73.9044 153.338 75.0353 152.005C77.3137 149.32 78.7831 146.269 80.6809 143.348C81.7468 141.707 82.6335 141.275 84.428 140.774C86.0947 140.308 87.4322 139.084 88.7882 138.065C91.6366 135.926 95.3148 133.599 97.1838 130.448C99.1509 127.132 96.3791 126.032 93.725 125.127C94.3709 123.398 95.6376 122.01 96.6811 120.523C97.8675 118.832 98.9431 117.076 100.221 115.448C102.824 112.132 105.425 108.832 107.951 105.453C110.111 102.566 112.294 99.8301 115.05 97.4908C117.819 95.1411 120.901 93.2154 123.941 91.2483C125.529 90.2207 128.317 87.5951 130.324 87.8635C132.271 88.1242 133.041 91.7762 133.527 93.3111C134.085 95.0724 134.282 97.5282 135.583 98.915C137.494 100.953 139.478 97.7428 140.391 96.2634C142.061 93.5536 143.77 90.8681 145.437 88.1559C146.197 86.9194 147.295 85.7428 147.746 84.3409C147.752 84.3241 147.963 83.1187 147.75 83.2873L147.735 83.3007L147.75 83.2846C148.226 82.8087 149.988 82.7098 150.647 82.6525L150.707 82.647C152.093 82.5153 153.496 82.6191 154.878 82.7535ZM173.493 158.738C175.09 158.728 176.681 158.915 178.27 159.046C179.666 159.161 180.945 158.946 182.339 158.861C184.063 158.757 184.915 158.939 184.518 160.732C184.23 162.036 183.883 163.774 182.553 164.325C180.756 165.07 178.336 164.97 176.421 165.252C175.016 165.459 173.614 165.646 172.214 165.882C171.285 166.039 170.808 166.203 170.372 165.143C170.009 164.254 170.243 163.066 170.367 162.148C170.463 161.443 170.406 160.204 170.736 159.577C171.229 158.642 172.522 158.744 173.493 158.738ZM99.0676 140.859C96.7222 143.018 95.1438 145.778 93.3728 148.396C92.2914 149.995 90.1759 152.543 91.7121 154.48C93.0209 156.132 96.0643 155.754 97.8952 155.834C100.772 155.959 103.122 157.268 105.86 157.943C112.756 159.644 107.029 147.971 106.074 145.536C105.404 143.826 104.712 142.125 103.901 140.478C103.536 139.735 102.806 137.569 101.897 137.286C100.579 136.874 99.9017 140.091 99.0676 140.859ZM158.317 116.316C159.413 118.426 159.591 121.347 160.11 123.651C161.699 130.697 162.628 137.873 163.358 145.054C159.726 143.603 155.892 143.503 152.057 143.148C149.278 142.89 146.727 142.596 143.948 142.715C143.474 142.735 142.112 142.978 141.722 142.572C141.198 142.028 141.832 140.509 141.987 139.936C142.829 136.826 143.2 133.613 144.157 130.522C145.133 127.37 146.319 124.222 147.582 121.175C148.505 118.946 149.773 116.772 152.01 115.679C153.969 114.723 157.101 113.976 158.317 116.316ZM173.275 130.029C171.778 132.301 169.883 134.289 168.421 136.582C167.385 138.208 166.171 141.217 168.661 142.251C169.534 142.614 170.566 142.457 171.481 142.473C172.897 142.497 174.299 142.62 175.717 142.586C177.059 142.554 178.387 142.39 179.725 142.32C180.568 142.276 181.627 142.341 182.37 141.853C184.361 140.545 182.922 137.874 182.28 136.166C181.599 134.351 180.68 132.634 179.793 130.914C179.177 129.721 178.258 127.29 176.859 126.804C175.202 126.228 173.965 128.981 173.275 130.029ZM100.711 104.288C97.422 108.139 94.5662 112.34 91.8771 116.631C90.5646 118.724 89.2902 120.843 88.0179 122.961C87.1854 124.348 86.5603 126.121 85.5461 127.377C83.2326 130.241 82.5891 123.992 82.2482 122.633C80.9903 117.624 79.4326 112.656 78.0469 107.678L79.4672 107.678C85.1283 107.675 90.5556 107.591 96.0674 105.911C97.6277 105.436 99.0502 104.404 100.711 104.288ZM112.668 105.259C110.877 106.591 99.4144 114.41 104.236 117.428C105.234 118.052 106.865 117.769 107.992 117.858C109.437 117.973 110.905 118.114 112.332 118.372C114.18 118.706 115.976 119.288 117.832 119.583C119.308 119.818 121.264 120.092 122.583 119.166C124.759 117.639 123.438 114.64 122.72 112.698C121.699 109.94 120.732 106.247 118.199 104.604C117.609 104.221 116.887 102.856 116.253 102.731C115.26 102.535 113.394 104.719 112.668 105.259ZM49.427 40.3956C50.2912 41.0615 50.3307 42.4445 50.5548 43.4207C51.3087 46.7041 52.361 49.9003 52.9854 53.2187C53.5942 56.4554 53.7855 59.6418 53.4868 62.9218C53.2875 65.1096 53.2644 67.8015 51.9439 69.6645C50.3635 71.8937 47.2341 71.7795 44.8674 72.4397C42.5903 73.0749 40.3326 75.0424 42.8164 77.0876C43.6991 77.8142 44.858 77.9324 45.7307 78.6323C46.807 79.4963 47.4251 81.0444 47.8824 82.3102C48.259 83.3523 48.248 83.5514 47.1231 83.9196C46.6093 84.0876 46.0902 84.1944 45.5497 84.1493C44.3188 84.0462 43.2208 83.2277 42.1903 82.6127C39.562 81.044 36.5263 78.95 33.3882 78.7132C32.3852 78.6377 31.245 79.051 30.2696 78.7229C29.3609 78.4167 29.6398 78.2295 29.4819 77.3783C28.8568 74.0046 28.6029 70.6932 26.8948 67.6412C26.0516 66.1352 23.8226 63.0546 22.3286 65.3992C21.7047 66.3784 21.479 66.8567 20.0949 66.5562C18.9688 66.312 17.7315 65.4151 17.955 64.1051C18.1653 62.8693 19.7792 62.0279 20.7572 61.4863C22.06 60.7654 22.9734 60.8486 24.3919 60.6779C28.2896 60.2087 25.5569 54.4681 24.995 52.314C24.6418 50.9603 24.2287 49.2105 25.1559 47.9881C26.567 46.1288 29.6411 46.7401 31.5778 47.0039C34.2559 47.3687 37.1795 47.563 39.6861 46.339C42.3378 45.0442 43.468 42.1239 45.9544 40.7041C46.8733 40.1793 48.4831 39.6674 49.427 40.3956ZM37.7896 64.1108C35.947 64.0859 36.8427 66.7317 37.3471 67.6212C38.41 69.4974 40.6868 70.2229 42.6859 69.5311C44.2673 68.9837 45.9778 66.5659 43.501 66.1651C42.3133 65.9731 41.1376 66.0513 40.0121 65.4824C39.3709 65.1583 38.5421 64.1209 37.7896 64.1108ZM42.4123 50.0415C41.2674 50.7414 43.2214 55.2118 43.5505 56.1166C44.0863 57.5932 44.5633 58.5465 43.2 59.6846C42.2521 60.4762 40.3824 61.1593 41.2751 62.7367C42.1013 64.1961 44.9359 63.5841 46.0885 62.87C47.7639 61.8316 47.2702 59.8426 46.9006 58.2103C46.6591 57.1409 44.4509 48.7952 42.4123 50.0415ZM222.693 20.6893C219.162 22.208 215.552 23.58 211.816 24.4951C208.552 25.2951 205.341 26.1577 201.977 25.9698C198.864 25.7963 198.492 28.8759 200.27 31.0088C201.236 32.1675 202.357 32.1385 203.765 32.1833C205.413 32.2358 206.91 32.6963 208.499 33.1086C210.92 33.7364 213.37 34.2696 215.716 35.1558C216.927 35.6132 218.121 36.1512 219.201 36.874C219.879 37.3287 221.394 38.1479 220.593 38.7832C219.435 39.701 215.998 38.4436 214.62 38.3608C211.411 38.1681 208.209 37.8764 205.018 37.4719C203.456 37.2735 201.778 37.0775 200.298 36.5058C199.33 36.132 198.258 35.2037 197.161 35.4394C194.848 35.9369 195.994 39.4292 197.044 40.5653C198.604 42.2525 200.972 42.9976 202.986 43.9562C204.394 44.6265 205.794 45.3362 207.161 46.0863C207.807 46.4407 210.817 47.7681 210.722 48.7759C210.622 49.8353 208.246 49.3011 207.658 49.2047C203.736 48.5624 200.197 47.0352 196.573 45.4723C194.987 44.7882 193.379 44.1317 191.826 43.3732C190.741 42.843 189.675 42.0353 188.476 41.7944C185.651 41.2262 185.775 44.4042 184.662 46.121C181.356 51.2234 174.967 53.4 169.996 56.3486C168.115 57.4638 166.322 58.7482 164.596 60.0918C163.364 61.0511 162.871 62.3715 161.494 61.1063C160.348 60.0517 159.794 58.505 159.059 57.1637C158.203 55.6022 157.06 54.2235 156.183 52.6748C154.886 50.3867 154.498 48.2043 157.345 47.3623C160.334 46.4784 162.699 45.1604 165.24 43.2799C171.474 38.6646 176.647 32.7711 182.863 28.1204C188.622 23.8117 194.729 19.7684 201.948 18.6114C208.791 17.5143 216.298 17.7844 222.693 20.6893ZM35.9185 53.8311C36.0647 55.1016 36.3754 57.8114 38.1281 57.9128C40.2567 58.0357 38.8271 51.5238 37.6213 50.7908C35.6907 49.6173 35.7948 52.7546 35.9185 53.8311ZM55.7251 53.3124C58.3822 53.534 59.1394 56.4648 56.4837 57.5026L55.7251 53.3124ZM45.8731 50.7402C46.2143 52.0703 46.0929 54.2048 47.1528 55.2258C48.6469 56.6644 49.2975 54.5531 49.2864 53.3493C49.2757 52.1586 48.6897 49.1803 47.1073 49.0233C45.7554 48.8893 46.8805 50.4677 45.8731 50.7402ZM17.1981 21.1467C18.1694 23.1822 17.1251 25.191 16.5438 27.1918C17.7362 27.5788 19.343 27.2861 20.0712 28.5553C20.5301 29.3553 20.4501 30.5598 20.3127 31.4261C20.2 32.1368 19.6213 33.0938 20.103 33.7533C20.7334 34.6166 22.2984 34.2174 22.9938 35.1777C24.0508 36.6382 23.4577 39.9742 21.9747 41.0736C19.8902 42.618 21.1341 38.828 21.2616 38.1378C21.5813 36.4088 19.8026 36.644 18.5878 35.9457C17.9359 35.5711 17.8195 35.4987 17.67 34.6991C17.5319 33.9624 17.6051 33.378 17.7794 32.5841C18.3707 29.8905 17.3369 30.3304 15.2119 29.7369C13.379 29.2246 13.5258 27.7496 13.9914 26.1992C14.3567 24.9839 15.4454 22.9902 14.2661 21.9541C13.7981 21.5428 13.0873 21.8028 12.9863 20.9446C12.9181 20.3652 13.6901 19.4154 14.0955 19.0822C15.4926 17.9336 16.6301 19.9563 17.1981 21.1467Z" fill="#252525"/>
</svg>
