<svg width="384" height="288" viewBox="0 0 384 288" fill="none" xmlns="http://www.w3.org/2000/svg">
<path d="M384 0H0V288H384V0Z" fill="white"/>
<path fill-rule="evenodd" clip-rule="evenodd" d="M131.25 132.793C132.427 144.681 133.605 156.57 134.782 168.458C141.193 164.8 147.603 161.142 154.014 157.484V184.567V191.686C154.014 192.316 153.64 194.48 154.014 195.025C154.331 195.488 156.68 195.501 157.235 195.579C160.86 196.087 164.493 196.538 168.131 196.94C177.72 197.999 187.984 199.516 197.609 198.299C205.976 197.241 214.088 194.265 221.732 190.802C224.416 189.587 227.063 188.286 229.66 186.895C230.21 186.6 232.209 185.904 232.509 185.304C232.753 184.814 232.179 183.091 232.103 182.576C231.78 180.404 231.457 178.232 231.134 176.06L226.622 145.727L235.145 154.237C235.813 154.904 237.08 156.797 238.004 157.092C238.682 157.309 240.359 156.638 241.029 156.509C245.854 155.579 250.68 154.649 255.506 153.72C256.63 153.503 259.164 153.511 260.112 152.832C260.622 152.466 260.646 151.722 260.826 151.016C262.003 146.405 263.18 141.794 264.357 137.183C264.569 136.353 265.752 133.734 265.451 132.897C265.343 132.598 264.821 132.393 264.502 132.197C257.219 127.749 249.935 123.3 242.652 118.851C238.662 116.414 234.672 113.978 230.682 111.541C229.011 110.52 226.957 108.68 225.064 108.109C223.888 107.755 222.178 108.02 220.961 107.985C218.489 107.915 216.017 107.844 213.545 107.774C213.158 107.763 211.802 107.487 211.477 107.715C211.205 107.905 211.318 108.169 211.229 108.622C211.011 109.726 211.01 110.917 210.903 112.038C210.817 112.938 210.988 114.588 210.582 115.403C210.323 115.923 210.652 115.716 210.301 115.967C209.884 116.267 208.552 116.17 208.055 116.228C205.633 116.509 203.21 116.791 200.788 117.072C197.908 117.406 194.996 118.034 192.102 117.745C187.715 117.307 182.985 117.329 178.678 116.405C177.559 116.164 177.155 115.534 176.292 114.672C174.606 112.989 172.938 111.286 171.234 109.621C170.399 108.805 170.757 108.943 169.896 109.253C168.817 109.641 167.723 110.576 166.746 111.171C163.005 113.45 159.263 115.729 155.522 118.008L132.679 131.922C132.203 132.213 131.726 132.503 131.25 132.793Z" fill="#FD4300"/>
<path fill-rule="evenodd" clip-rule="evenodd" d="M349.731 134.271C345.022 152.148 335.552 171.64 316.472 177.338C311.834 178.723 307.321 179.769 302.503 179.241C302.044 179.191 301.661 179.256 301.225 179.264C300.443 179.279 301.118 179.56 300.242 179.289C299.558 179.078 298.919 178.55 298.207 178.317C296.313 177.698 294.295 177.578 292.371 177.077C287.643 175.847 282.771 174.329 278.19 172.633C276.033 171.834 274.05 170.722 272.021 169.652C269.959 168.565 267.773 167.89 265.687 166.893C264.039 166.104 261.215 165.077 260.056 163.599C258.821 162.022 260.53 158.665 261.019 156.989C262.681 151.285 264.66 145.665 265.909 139.848C270.221 144.846 276.207 147.941 282.403 149.937C285.766 151.02 289.224 151.803 292.721 152.294C295.896 152.738 299.322 153.277 302.504 152.645C304.907 152.168 307.923 151.064 309.638 149.23C310.251 148.576 310.986 147.375 310.642 146.424C310.207 145.217 308.938 145.785 308.251 144.885C307.653 144.1 307.747 142.265 307.556 141.309C307.219 139.618 306.755 137.973 306.19 136.345C305.092 133.184 303.724 130.016 303.396 126.653C303.111 123.735 303.776 120.975 305.232 118.443C305.919 117.246 307.647 113.99 309.333 114.125C311.184 114.274 308.688 122.077 308.606 123.668C308.282 129.978 309.129 136.702 312.367 142.232C313.606 144.35 315.399 146.816 318.046 147.078C320.85 147.356 323.112 145.15 324.446 142.918C327.702 137.472 326.061 130 324.411 124.293C322.389 117.291 317.109 112.464 313.77 106.176C318.755 106.677 321.424 109.843 323.982 113.86C326.798 118.283 328.99 123.593 330.072 128.74C330.618 131.34 330.241 133.951 330.244 136.576C330.245 137.448 330.245 140.666 331.667 140.54C333.187 140.404 333.708 136.775 333.932 135.668C334.444 133.128 334.999 130.588 335.443 128.036C336.231 123.521 336.581 118.896 337.524 114.412C337.683 113.654 338.001 111.551 339.135 112.119C340.01 112.556 339.87 115.809 339.902 116.565C339.98 118.428 340.091 120.291 340.106 122.156C340.128 124.92 339.577 127.781 339.847 130.529C340.024 132.324 340.987 134.307 342.182 131.886C343.366 129.485 343.608 126.491 344.268 123.909C344.962 121.198 345.678 118.448 347.15 116.04C347.559 115.372 347.998 114.312 348.905 114.626C349.565 114.854 350.052 116.418 350.256 116.969C351.175 119.463 351.019 122.235 350.961 124.845C350.89 128.043 350.547 131.17 349.731 134.271ZM257.912 138.91C257.66 138.829 256.591 138.727 256.326 138.704C256.016 138.677 256.368 138.105 255.616 138.268C255.761 138.627 256.019 138.867 256.39 138.988C255.259 139.37 254.425 138.426 253.652 138.304C252.913 138.188 252.881 138.304 252.151 139.085C251.36 138.121 251.508 138.722 250.858 138.723C250.621 138.723 250.611 139.081 250.226 139.038C249.89 139 249.855 138.49 249.656 138.43C248.577 138.103 247.466 139.747 246.243 138.321C245.946 139.804 242.548 137.947 241.241 138.207C239.871 138.48 240.462 138.971 239.355 138.132C238.299 137.332 238.594 137.863 237.366 138.518C237.395 138.502 236.673 138.99 236.74 138.998C235.891 138.898 235.939 138.02 234.863 138.066C233.724 138.116 233.238 139.009 232.196 137.91C231.969 138.733 231.922 138.378 231.388 138.586C231.094 138.656 230.837 138.578 230.617 138.354C230.55 138.581 230.403 138.719 230.176 138.77C229.594 138.823 228.502 138.903 227.974 138.623C227.181 138.203 227.819 138.041 227.269 137.568C227.022 138.872 226.482 138.595 225.343 138.717C224.474 138.81 224.283 138.543 223.453 138.414C222.635 138.286 221.579 138.603 220.781 138.738C220.452 138.795 220.011 139.024 219.676 138.943C219.374 138.871 219.245 138.636 219.064 138.575C218.845 138.501 218.892 138.31 218.514 138.217C218.253 138.153 217.785 138.398 217.525 138.44C215.666 138.742 213.88 138.745 212.107 138.014C212.98 139.549 210.065 138.72 209.545 138.085C208.896 139.102 208.11 138.384 206.801 138.463C205.54 138.54 203.644 138.926 203.133 137.356C203.033 137.675 202.317 138.601 202.032 138.742C201.206 139.152 201.107 138.546 200.339 138.299C199.293 137.963 199.511 138.601 198.863 138.731C197.768 138.95 197.176 138.179 196.209 137.769C196.168 138.406 196.147 138.798 195.596 139.195C195.108 137.418 193.367 139.34 193.666 136.966C193.003 137.397 192.071 137.729 191.883 138.601C192.99 138.296 192.001 139.02 191.954 139.044C191.808 139.121 191.313 138.427 191.198 138.329C191.167 138.656 191.136 138.984 191.105 139.311C190.663 139.091 190.249 138.696 189.891 138.498C189.568 138.319 190.031 137.948 189.485 137.923C189.198 137.909 188.898 138.531 188.596 138.584C188.135 138.665 188.357 138.004 188.164 138.026C187.87 138.06 187.391 138.49 187.168 138.482C186.439 138.454 186.932 138.115 186.376 137.96C185.382 137.681 185.446 138.332 184.731 138.566C183.096 139.103 183.26 136.633 181.596 138.28C181.198 138.674 180.942 139.283 180.397 139.249C179.267 139.178 179.664 137.84 179.894 137.184C180.131 137.301 175.768 139.542 175.802 139.455C175.83 138.917 176.516 138.503 175.903 138.026C175.402 139.101 174.874 139.12 173.718 139.32C173.155 139.418 173.045 139.548 172.443 139.314C172.06 139.166 171.803 138.555 171.422 138.521C171.473 138.526 170.774 139.058 170.667 139.106C170.036 139.39 169.637 139.068 169.024 139.185C168.501 139.284 168.295 139.729 167.775 139.607C167.08 139.445 167.488 138.616 166.533 138.847C166.206 138.926 166.01 139.555 165.496 139.685C164.694 139.888 163.711 139.51 162.863 139.707C162.191 139.864 161.691 139.931 161.103 139.963C160.628 139.99 160.823 139.621 159.948 140.057L159.577 139.122C159.14 139.516 158.701 139.909 158.264 140.303C158.18 139.95 158.128 139.593 158.106 139.231C157.452 139.885 156.63 139.996 155.752 140.055C154.801 140.119 154.093 140.326 153.168 140.5C152.875 140.555 152.122 140.642 151.881 140.54C151.917 140.555 151.431 140.353 151.578 140.392C151.515 140.263 151.456 140.133 151.402 140C151.32 139.631 151.055 139.615 150.606 139.952C150.374 139.916 149.924 139.612 149.693 139.687C149.096 139.88 149.177 140.343 148.583 140.275C148.197 140.23 148 139.661 147.598 139.622C146.984 139.563 146.451 140.251 145.897 140.401C147.581 139.944 143.713 140.298 144.916 140.33C144.127 140.309 143.309 140.27 142.58 140.624C142.177 140.348 142.666 139.795 142.259 139.567C141.89 139.361 141.862 139.906 141.819 139.918C142.051 139.852 141.935 140.316 141.702 140.399C140.977 140.656 140.396 140.002 140.358 139.353C139.742 140.282 139.569 139.908 138.662 139.966C137.767 140.022 136.996 140.491 136.101 140.483C134.332 140.466 133.131 139.851 132.54 138.271C134.426 138.5 136.324 137.288 138.167 137.574C138.774 137.667 139.152 138.123 139.683 138.042C140.337 137.942 140.794 137.229 141.632 137.152C143.482 136.982 145.306 137.147 147.169 136.864C149.394 136.525 151.715 136.324 153.962 136.489C155.697 136.617 157.103 135.953 158.863 135.825C161.139 135.66 163.434 135.63 165.714 135.511C168.056 135.388 170.577 135.014 172.913 135.134C173.642 135.171 174.27 135.243 174.993 135.199C175.299 135.181 175.589 134.973 175.91 135.004C176.329 135.044 176.508 135.472 176.942 135.457C177.68 135.432 178.468 134.825 179.344 134.808C180.785 134.781 182.22 134.784 183.665 134.702C184.937 134.63 186.3 134.333 187.566 134.349C188.459 134.36 188.68 135.121 189.2 135.2C190.136 135.341 194.871 132.647 195.28 135.065C197.745 133.378 201.051 134.806 203.794 134.489C207.319 134.082 210.909 134.445 214.457 134.3C218.068 134.152 221.783 134.289 225.38 134.63C226.869 134.771 228.309 134.903 229.803 134.817C230.468 134.779 231.238 134.609 231.905 134.763C232.066 134.8 233.301 135.662 233.148 135.687C233.822 135.081 233.366 134.992 234.553 134.961C235.468 134.937 236.333 135.135 237.243 135.189C238.876 135.285 240.521 135.059 242.15 135.109C243.511 135.151 244.841 135.351 246.208 135.361C247.683 135.372 249.423 135.413 250.49 136.602C250.377 136.229 250.265 135.856 250.152 135.483C251.798 135.611 253.424 136.199 255.087 135.924C254.667 136.327 254.239 136.657 254.079 137.248C254.976 137.134 255.583 136.508 256.528 136.503C257.321 136.498 257.486 136.896 258.323 136.382C258.426 137.012 258.529 137.642 258.632 138.271C259.792 137.998 259.031 137.133 259.116 136.354C260.059 136.637 260.857 136.312 260.486 137.668C260.199 138.713 258.894 139.229 257.912 138.91ZM256.282 150.556C255.878 151.692 252.379 151.043 251.552 150.923C250.483 150.768 249.26 150.523 248.276 150.401C248.158 150.243 248.016 150.11 247.852 150C247.728 150.172 247.571 150.295 247.382 150.367C246.93 150.466 246.928 150.932 246.334 150.829C246.307 151.52 246.786 151.127 247.154 151.378C246.228 151.998 246.651 151.284 246.132 151.295C246.003 151.113 245.824 151.041 245.594 151.08C245.301 151.156 245.032 151.282 244.785 151.456C244.553 151.701 244.355 151.713 244.19 151.494C244.032 151.335 243.839 151.237 243.611 151.2C242.699 151.348 242.444 151.753 241.417 151.687C239.95 151.592 238.362 151.979 236.918 151.775C236.023 151.649 234.527 150.243 234.12 151.614C233.501 150.597 232.516 149.906 231.923 148.867C234.683 148.708 237.443 148.518 240.205 148.418C242.624 148.331 245.27 148.603 247.53 148.489C249.648 148.382 251.89 148.148 254.052 147.955C256.344 147.75 257.102 148.253 256.282 150.556ZM184.272 150.724C185.275 151.001 186.229 150.372 187.201 150.571C187.522 150.637 188.188 151.222 188.334 151.233C188.602 151.255 189.388 150.68 189.726 150.603C191.861 150.117 194.447 150.169 196.582 150.468C197.713 150.626 197.886 150.108 198.874 149.857C199.9 149.595 201.358 149.797 202.439 149.724C204.981 149.554 207.522 149.675 210.047 149.489C212.639 149.299 215.218 149.195 217.811 149.062C219.578 148.971 223.823 147.963 225.287 149.275C226.494 150.356 224.939 152.233 223.731 152.662C222.828 152.981 222.395 152.307 221.725 152.372C220.962 152.445 221.228 153.347 220.546 152.51C220.124 153.342 217.47 152.988 216.709 153.043C215.052 153.162 213.65 153.495 212.522 151.949C212.598 152.395 212.675 152.841 212.751 153.286C211.255 152.487 209.649 152.743 208.351 153.022C207.708 153.16 205.734 154.113 205.037 153.702C204.558 153.419 205.403 152.935 204.594 152.694C204.17 152.567 203.438 153.271 202.92 153.236C201.487 153.137 201.894 152.173 200.486 153.4C200.009 152.988 199.85 152.287 199.913 151.685C198.89 152.558 198.976 154.011 197.148 153.745C196.466 153.646 196.341 152.951 195.986 152.823C195.229 152.55 195.143 153.041 194.488 153.43C194.24 153.576 193.938 153.812 193.647 153.842C193.048 153.902 192.953 153.627 192.871 153.636C192.473 153.68 191.972 153.882 191.499 153.737C191.075 153.607 190.951 152.859 190.204 153.034C189.488 153.202 189.483 153.687 189.612 154.414C188.907 154.341 188.481 153.949 187.953 153.523C187.42 154.766 186.299 153.737 185.679 154.785C184.871 153.82 184.353 154.086 183.351 153.144C183.4 153.537 183.449 153.93 183.498 154.323C182.716 154.172 182.368 153.621 181.701 154.35C181.053 153.144 179.089 154.863 178.081 153.698C177.631 155.174 174.657 154.821 173.4 154.846C172.287 154.869 171.463 154.778 170.375 155.036C169.414 155.265 168.081 155.502 167.177 155.397C166.586 155.329 165.941 155.22 165.205 155.3C164.144 155.416 163.227 155.965 162.128 155.705C160.473 155.314 159.459 153.14 161.302 152.185C162.564 151.532 164.836 151.774 166.224 151.653C168.525 151.453 171.103 151.034 173.407 151.225C175.204 151.373 176.842 150.945 178.676 150.764C180.056 150.627 182.318 150.382 183.218 151.75C183.564 151.35 183.528 150.518 184.272 150.724ZM159.087 169.45C158.839 168.219 169.358 167.542 170.402 167.461C172.594 167.293 174.792 167.172 176.989 167.116C178.795 167.07 180.48 167.415 182.287 167.138C183.974 166.879 186.01 166.348 187.479 167.543C187.695 165.909 194.026 166.705 195.231 166.71C200.474 166.729 205.492 166.741 210.564 166.416C213.462 166.231 216.54 165.981 219.439 166.126C220.747 166.191 221.8 166.54 223.1 166.237C223.948 166.04 224.862 165.63 225.674 166.21C226.623 166.889 227.029 169.195 226.375 170.158C225.898 170.859 225.477 170.782 224.716 170.66C223.546 170.474 222.677 170.204 221.484 170.679C221.677 170.602 220.685 170.823 220.767 170.817C219.416 170.918 217.563 171.862 216.398 170.774C216.865 170.856 217.543 170.023 216.955 169.954C216.513 169.903 216.233 170.376 215.888 170.535C214.709 171.077 214.106 170.908 213.402 169.77C211.982 170.999 211.829 170.659 211.206 169.146C210.726 169.515 210.623 170.389 210.245 170.676C210.189 170.719 210.421 171.25 210.149 171.228C209.896 171.207 209.813 170.793 209.618 170.76C209.494 170.739 209.429 170.375 209.31 170.353C209.181 170.329 209.049 170.561 208.903 170.555C208.513 170.536 207.397 171.366 207.797 170.201C207.206 170.953 206.952 170.474 206.738 169.79C206.056 170.308 205.374 170.827 204.691 171.346C204.373 170.464 203.827 170.704 203.14 171.012C203.347 170.399 203.217 169.819 202.698 170.246C202.397 170.492 202.195 171.275 201.887 171.608C200.641 170.346 200.188 170.692 198.466 170.856C197.809 170.919 196.993 171.04 196.406 170.643C195.89 170.294 195.598 169.014 194.715 170.048C194.912 169.818 194.604 171.585 194.549 171.866C194.16 171.604 193.829 171.281 193.557 170.898C193.049 171.904 191.716 171.002 190.623 171.207C188.903 171.531 187.129 172.075 185.61 170.795C185.502 171.209 184.258 171.735 184.256 171.751C184.33 171.019 184.791 171.277 183.848 171.138C183.675 171.112 183.478 171.424 183.314 171.458C182.752 171.575 182.095 171.464 181.529 171.448C179.172 171.38 177.015 171.903 174.687 172.092C173.903 172.156 172.972 172.281 172.236 171.985C171.477 171.68 171.498 171.334 170.73 171.53C170.973 171.468 170.25 172.227 170.289 172.199C170.186 172.274 169.756 171.903 169.603 171.931C169.558 172.093 169.514 172.255 169.469 172.417C169.284 172.394 169.099 172.371 168.914 172.348C168.408 172.416 167.951 171.904 167.476 171.887C167.563 171.89 166.193 172.4 166.255 172.431C165.298 171.954 165.573 172.092 164.359 172.383C163.212 172.657 162.069 172.593 160.892 172.765C157.468 173.262 159.508 171.546 159.087 169.45ZM156.063 186.569C155.419 185.656 157.132 185.34 157.679 185.259C158.579 185.127 159.773 185.391 160.372 185.248C161.286 185.03 162.167 184.512 163.195 184.371C164.492 184.194 165.8 184.165 167.103 184.054C167.537 184.017 168.074 183.868 168.496 183.893C169.125 183.93 169.386 184.263 169.894 184.265C170.759 184.27 171.826 183.724 172.712 183.624C173.847 183.495 174.993 183.435 176.133 183.378C178.536 183.259 180.914 183.308 183.315 183.306C184.411 183.304 187.327 182.167 187.874 183.442C188.633 182.476 190.581 182.608 191.666 182.58C193.579 182.531 195.471 182.346 197.382 182.257C199.018 182.181 200.847 182.531 202.454 182.286C203.339 182.151 203.632 181.867 204.637 181.995C205.383 182.09 206.52 181.696 207.16 181.87C207.127 181.861 207.959 182.377 207.7 182.393C207.986 182.375 207.969 182.575 208.284 182.485C208.698 182.369 208.508 181.848 209.367 181.663C210.705 181.374 212.491 181.709 213.882 181.634C215.231 181.563 216.578 181.531 217.929 181.538C218.551 181.541 219.32 181.392 219.925 181.513C220.221 181.573 220.851 181.96 221.102 181.921C221.814 181.81 222.177 181.315 223.139 181.346C224.23 181.38 225.212 181.365 226.296 181.282C227.346 181.202 227.515 181.052 228.036 181.926C228.551 182.793 228.694 183.921 227.744 184.51C228.361 184.47 229.12 185.296 228.393 185.753C227.944 186.036 227.043 185.398 226.505 185.444C225.843 185.501 225.323 185.851 224.602 185.873C223.843 185.896 223.074 186.087 222.326 186.101C221.547 186.117 220.959 185.769 220.22 185.917C219.57 186.048 219.501 186.58 218.719 186.112C218.33 185.88 218.264 185.018 217.734 185.01C217.023 184.999 217.306 185.918 216.897 186.343C216.788 185.03 215.774 187.203 215.37 185.609C214.999 186.138 213.623 186.879 212.956 186.453C212.349 186.066 212.55 185.188 212.297 184.556C211.876 185.692 210.745 186.871 210.848 184.803C210.299 185.479 208.815 185.372 209.186 186.555C208.739 186.546 208.633 185.907 208.257 185.859C207.932 185.818 207.674 186.067 207.624 186.063C207.802 186.078 207.092 186.315 207.081 186.317C207.562 186.219 205.693 186.053 206.011 186.056C205.578 186.052 205.047 186.407 204.54 186.406C204.079 186.405 203.619 186.223 203.164 186.171C201.982 186.036 202.228 186.295 201.486 186.667C201.211 186.804 201.142 187.037 200.751 187.008C200.464 186.986 200.356 186.61 200.323 186.607C199.918 186.566 200.217 186.431 199.588 186.493C199.516 186.618 199.444 186.741 199.372 186.865C199.145 187.156 198.85 187.229 198.489 187.084C197.558 187.283 194.472 188.148 194.774 186.546C194.301 186.777 193.829 187.009 193.356 187.24C193.153 185.948 190.583 187.661 190.009 187.747C189.273 187.858 189.205 187.575 188.509 187.425C188.383 187.398 188.132 187.812 187.838 187.753C187.074 187.599 186.938 187.523 186.807 186.693C186.262 187.711 185.81 187.256 184.822 187.423C184.604 187.461 184.464 187.891 184.15 187.817C183.924 187.763 183.918 187.35 183.762 187.297C183.622 187.248 183.643 186.922 183.436 186.876C183.199 186.823 182.391 187.485 182.159 187.587C181.636 187.818 180.778 188.199 180.267 188.085C179.636 187.944 179.917 187.476 179.025 187.529C177.619 187.611 177.032 188.808 176.157 186.922C175.762 187.678 175.812 187.883 175.178 188.132C174.709 188.316 173.521 188.124 172.904 188.101C170.268 188.004 167.677 188.902 165.062 188.666C163.913 188.563 162.945 188.333 161.785 188.521C160.567 188.719 159.375 189.01 158.139 189.127C157.51 189.186 156.197 189.367 155.889 188.563C155.617 187.856 156.63 187.374 156.063 186.569ZM161.232 215.571C157.813 217.858 154.981 220.981 151.842 223.626C148.694 226.278 146.197 229.226 143.366 232.162C140.749 234.876 138.345 237.445 135.181 239.495C133.179 240.794 131.393 242.392 129.336 243.616C127.795 244.532 125.462 245.738 126.213 242.934C126.984 240.061 128.406 237.156 129.641 234.473C131.396 230.658 133.165 226.879 135.065 223.136C135.779 221.73 136.178 220.33 137.31 219.21C138.542 217.991 139.404 216.4 140.753 215.248C146.428 210.403 154.979 214.146 161.232 215.571ZM171.958 217.213C170.407 218.026 168.671 218.228 167.027 218.765C165.627 219.223 164.324 220.038 162.818 220.098C164.189 219.068 165.367 217.669 166.913 216.888C168.652 216.009 170.231 216.649 171.958 217.213ZM240.032 223.988C234.327 222.064 229.016 219.227 223.459 216.944C222.5 216.55 214.999 214.08 215.151 212.904C220.408 211.941 225.822 210.288 231.091 212.09C235.885 213.729 239.784 217.661 243.495 220.952C244.463 221.811 250.451 225.721 249.915 226.966C249.544 227.829 246.659 227.594 245.977 227.417C245.097 227.188 244.59 226.654 243.9 226.067C242.746 225.086 241.469 224.473 240.032 223.988ZM229.501 191.829C230.367 191.032 230.886 189.822 231.714 189.086C232.777 188.14 234.493 188.601 235.655 189.092C239.144 190.566 242.126 193.044 245.593 194.582C249.434 196.287 252.761 198.565 256.226 200.912C259.393 203.058 262.818 204.834 266.052 206.882C269.346 208.969 273.034 210.326 276.374 212.338C279.773 214.387 283.159 216.445 286.425 218.702C292.25 222.728 298.314 226.862 302.623 232.586C304.838 235.528 306.911 238.865 308.537 242.169C310.014 245.172 311.616 249.341 309.702 252.465C307.863 255.466 304.73 257.829 302.077 260.068C301.072 260.915 300.117 261.945 298.815 262.313C297.231 262.759 295.383 262.636 293.755 262.768C285.046 263.474 276.933 262.808 268.351 261.25C260.076 259.749 251.766 258.908 243.428 257.864C238.724 257.275 234.02 256.589 229.38 255.609C227.397 255.19 225.378 254.706 223.437 254.135C221.742 253.636 220.317 252.538 218.574 252.103C211.177 250.256 202.714 249.55 195.391 246.443C201.871 243.75 208.758 242.123 215.4 239.885C222.39 237.53 229.217 235.554 236.585 234.884C240.376 234.54 243.77 233.572 247.417 232.558C250.892 231.593 254.521 231.297 258.091 230.864C259.678 230.671 264.209 230.96 264.735 228.884C265.518 225.795 261.067 225.438 259.169 225.715C256.477 226.107 254.257 226.779 252.197 224.571C250.093 222.315 248.049 220.006 245.907 217.779C241.936 213.651 237.842 208.875 232.229 207.023C225.38 204.763 217.438 206.908 210.605 208.193C203.387 209.55 196.181 210.85 189.098 212.823C186.165 213.64 182.383 215.44 179.339 215.151C176.339 214.865 172.941 214.374 170.042 213.509C168.73 213.118 167.652 212.393 166.478 211.716C164.952 210.837 163.28 210.273 161.66 209.589C158.384 208.207 155.191 206.933 151.658 206.39C148.682 205.932 145.522 205.661 142.638 206.704C139.809 207.728 137.302 209.811 135.328 212.038C133.184 214.456 131.411 217.166 129.654 219.868C128.81 221.165 127.78 222.297 126.906 223.565C126.173 224.63 125.745 225.813 124.968 226.848C123.231 229.163 122.051 232.124 120.998 234.818C119.829 237.809 118.529 241.367 118.808 244.622C118.914 245.852 119.024 247.481 119.5 248.621C120.105 250.072 120.968 250.035 122.212 250.582C124.349 251.522 124.949 254.12 127.71 253.614C130.301 253.139 132.547 251.004 134.437 249.303C136.901 247.086 139.258 244.748 141.616 242.418C144.034 240.028 146.418 237.376 148.342 234.564C149.1 233.457 149.69 232.206 150.585 231.198C151.725 229.914 153.005 229.759 154.553 229.248C168.09 224.775 181.693 220.461 195.652 217.508C198.997 216.8 202.368 215.888 205.654 214.946C209.138 213.947 210.943 215.003 213.818 216.904C219.826 220.876 226.928 223.674 233.618 226.266C235.725 227.082 239.078 227.134 240.725 228.743C230.964 230.231 221.662 233.094 212.247 235.945C207.606 237.35 202.911 238.569 198.251 239.913C193.59 241.258 189.106 243 184.509 244.516C179.934 246.024 175.099 246.64 170.48 248.031C165.764 249.452 161.068 250.429 156.228 251.292C151.341 252.165 146.487 253.171 141.583 253.952C139.338 254.309 137.093 254.68 134.872 255.171C132.699 255.653 130.6 256.805 128.416 257.072C118.664 258.266 109.104 260.924 99.3901 262.427C92.137 263.549 79.5188 265.114 74.8154 257.837C70.0858 250.519 75.8883 241.983 81.0655 236.75C84.2829 233.498 87.8985 230.636 91.6918 228.09C95.7514 225.365 99.6573 222.423 103.718 219.702C112.907 213.544 122.871 208.522 132.743 203.575C137.482 201.2 142.06 198.653 146.67 196.047C148.957 194.753 150.224 196.84 152.032 198.259C153.454 199.375 156.066 202.126 158.056 200.854C158.133 201.312 158.21 201.77 158.286 202.228C158.869 201.962 159.453 201.697 160.035 201.431C160.427 202.458 160.381 203.096 161.475 203.635C162.147 203.967 163.58 204.365 164.221 203.782C164.351 204.187 164.482 204.593 164.613 204.998C165.172 204.955 165.281 203.354 165.386 202.978C166.346 204.38 167.673 205.551 169.359 205.947C169.367 205.855 169.085 204.704 169.097 204.697C169.63 204.37 170.304 205.769 170.586 206.069C171.524 207.061 172.084 206.908 173.12 206.106C173.195 206.188 173.546 207.103 173.597 207.087C173.821 207.016 174.247 206.204 174.293 206.131C174.229 207.197 176.288 207.412 177.015 207.183C176.852 206.871 176.689 206.558 176.526 206.246C179.059 205.908 180.053 208.599 182.484 208.462C184.282 208.361 182.84 207.968 183.857 207.198C184.746 206.525 184.904 207.997 184.991 207.95C185.161 207.772 185.292 207.568 185.386 207.338C185.714 208.598 188.333 209.728 188.062 207.656C189.092 208.068 189.824 208.752 190.963 208.897C192.349 209.072 193.829 208.778 195.211 208.663C198.189 208.416 200.997 207.808 203.682 206.444C205.274 205.635 206.968 204.901 208.464 203.925C209.716 203.108 212.092 200.628 213.759 201.696C213.332 200.436 215.342 201.603 215.406 199.981C215.729 200.225 216.052 200.468 216.374 200.711C216.568 200.287 216.514 199.618 216.773 199.248C217.13 198.74 217.303 199.039 217.607 198.753C217.947 198.433 218.243 197.577 218.65 197.333C219.07 197.082 219.564 197.381 220.016 197.162C220.703 196.828 223.661 193.566 223.16 196.361C224.432 195.929 223.451 195.534 223.61 194.686C223.929 192.988 224.706 194.21 225.48 194.358C226.746 194.601 226.721 193.554 227.427 192.793C228.072 192.098 229.285 191.786 228.867 190.579C229.344 190.836 229.445 191.34 229.501 191.829ZM153.144 155.556C152.146 156.667 151.399 156.192 150.29 156.029C150.171 155.631 149.968 155.576 149.681 155.864C149.353 156.053 148.999 156.177 148.621 156.236C147.711 156.461 146.766 156.365 145.876 156.705C145.902 156.407 146.215 155.877 146.014 155.574C145.078 156.221 144.498 156.633 143.349 156.646C142.417 156.655 140.783 155.944 140.01 156.794C139.986 156.463 139.962 156.133 139.938 155.802C139.56 155.99 139.23 156.243 138.95 156.559C138.897 156.069 138.867 155.698 138.543 155.301C137.928 156.567 137.254 156.597 136.059 156.113C136.226 156.181 134.862 155.381 134.914 155.603C134.483 153.786 141.29 153.936 142.005 153.864C143.789 153.684 145.574 153.579 147.361 153.415C149.056 153.259 150.321 152.995 151.494 154.409C150.971 152.366 155.917 152.468 153.144 155.556ZM75.1018 123.877C75.2893 126.966 75.9765 130.248 74.7758 133.22C73.8104 135.609 71.8847 138.308 69.8104 139.867C65.5629 143.059 61.9626 139.153 61.3714 134.86C60.7552 130.382 61.9767 124.911 65.8324 122.15C68.1362 120.5 70.367 120.614 73.0196 121.157C73.6425 121.284 74.6538 121.235 75.01 121.854C75.0935 121.999 75.0186 123.875 75.1018 123.877ZM131.515 165.022C130.782 165.393 130.014 165.61 129.367 166.114C129.142 166.289 129.066 166.687 128.827 166.835C128.394 167.103 127.773 166.925 127.321 167.146C126.573 167.512 126.036 168.036 125.146 168.373C123.825 168.873 122.667 169.56 121.418 170.211C119.338 171.296 117.105 172.227 114.93 173.11C113.832 173.556 110.795 174.425 110.9 176.032C110.655 176.099 110.404 175.561 109.891 175.604C109.187 175.663 108.257 176.477 107.526 176.677C106.159 177.051 105.1 177.084 105.1 178.827C104.665 178.532 104.555 177.808 103.976 177.712C103.324 177.604 103.05 178.307 102.529 178.526C101.915 178.784 101.151 178.537 100.543 178.811C100.277 179.092 99.9821 179.338 99.6569 179.547C99.3262 179.585 98.9971 179.575 98.6695 179.516C97.3789 179.79 96.1911 180.275 94.8974 180.528C93.6367 180.774 92.7733 180.863 93.3032 182.354C91.9546 182.618 91.6251 181.187 90.1035 181.711C88.2382 182.352 86.4949 182.814 84.5477 183.205C83.5549 183.405 82.5173 183.85 81.517 183.955C80.8035 184.029 80.1374 183.774 79.4348 183.853C78.5879 183.948 77.9073 184.341 77.031 184.355C76.1997 184.37 75.3269 184.221 74.5106 184.074C74.6259 184.403 74.7703 184.718 74.9437 185.02C74.3792 184.902 74.1187 184.223 73.6402 184.123C73.1381 184.018 72.6881 184.536 72.27 184.421C72.0919 184.372 72.2103 183.823 71.8918 183.718C71.6015 183.623 71.4791 183.735 71.1912 183.69C71.0951 183.675 69.8908 183.61 69.699 183.711C69.3636 183.889 69.7029 184.222 69.6362 184.272C68.5037 185.11 68.49 184.657 67.9852 183.782C67.2438 182.497 66.3498 183.308 65.0023 183.083C63.5007 182.832 62.3176 183.495 60.8395 183.401C59.2453 183.299 57.3718 182.106 55.9624 181.409C52.9188 179.905 49.9508 178.481 47.3948 176.203C42.398 171.749 38.3329 166.272 35.9361 160.002C33.3608 153.265 32.8728 146.239 33.0796 139.093C33.2039 134.795 33.5479 130.499 34.2254 126.251C34.6918 123.329 34.7895 118.137 38.0838 116.806C38.6502 123.648 36.863 130.619 37.99 137.416C38.3293 139.464 39.157 142.192 40.7234 143.708C43.0425 145.953 43.585 142.708 43.7949 140.916C44.1852 137.587 44.9105 134.277 45.424 130.964C45.9371 127.652 46.2995 124.304 47.0131 121.027C47.2732 119.833 49.371 111.083 50.9107 111.498C50.5992 117.863 49.7719 124.118 49.7394 130.506C49.7264 133.068 49.497 135.775 49.8669 138.32C50.0571 139.63 51.25 143.474 53.3016 143.153C55.2002 142.857 53.1129 140.149 52.9356 139.105C52.4661 136.342 53.0647 132.903 53.5025 130.16C54.3309 124.968 56.1793 119.651 59.2006 115.313C61.9065 111.429 66.0728 107.73 71.092 108.415C73.2365 108.708 74.9096 109.241 75.9871 111.199C76.8325 112.736 80.1629 114.482 78.2329 116.406C76.4759 118.158 73.6343 116.756 71.6812 116.338C69.2899 115.827 66.7271 116.442 64.7273 117.843C61.2961 120.247 59.3406 124.544 58.7024 128.575C57.8422 134.009 60.1417 148.233 68.6112 145.046C74.2376 142.927 78.4753 135.309 78.003 129.476C77.8136 127.141 76.9007 122.709 80.1311 122.079C84.2696 121.271 84.8541 125.833 84.4351 128.798C83.8259 133.11 81.5468 137.12 78.9394 140.529C76.6669 143.501 74.0238 145.359 71.2893 147.813C70.4796 148.54 68.4147 150.173 68.7615 151.525C69.1416 153.006 72.3869 153.427 73.6865 153.67C80.115 154.874 87.3646 153.766 93.7822 152.926C106.972 151.199 119.989 146.945 130.805 139.123C131.242 143.963 131.793 148.786 131.995 153.643C132.094 156.001 132.119 158.393 132.388 160.737C132.554 162.18 133.154 164.195 131.515 165.022ZM94.9414 181.885C94.4236 182.156 94.9833 180.518 94.8394 181.06C95.6129 181.337 95.6471 181.612 94.9414 181.885ZM149.658 123.319C150.48 122.413 152.726 120.257 153.439 122.303C153.704 121.431 153.738 120.14 154.762 121.317C155.17 119.871 159.666 120.006 160.78 119.942C164.346 119.738 167.927 119.629 171.48 119.275C178.783 118.547 186.212 118.923 193.541 118.899C195.128 118.893 196.711 118.807 198.286 119.038C199.807 119.26 201.405 119.883 202.954 119.655C204.332 119.453 205.235 119.073 206.653 119.236C208.35 119.43 209.997 119.568 211.709 119.562C219.281 119.534 226.849 119.841 234.423 119.853C235.899 119.855 237.667 119.567 239.052 120.194C239.565 120.426 240.126 121.2 240.518 121.284C240.967 121.382 240.7 120.681 241.301 120.997C242.106 121.421 241.483 122.723 240.951 122.93C241.27 122.806 240.376 122.684 240.466 122.68C240.041 122.702 239.68 123.027 239.224 123.007C238.531 122.977 237.95 122.554 237.391 122.182C237.382 122.334 237.689 123.347 237.338 123.398C237.037 123.443 236.754 122.443 236.724 122.211C235.029 123.705 233.234 122.872 231.132 123.061C229.641 123.196 226.531 124.19 225.491 122.634C225.448 122.965 225.315 123.254 225.093 123.503C224.795 123.956 224.538 123.917 224.321 123.386C224.248 123.39 223.523 123.547 223.509 123.546C222.999 123.506 222.338 123.323 221.82 123.278C221.017 123.21 221.165 123.794 220.526 123.804C220.176 123.809 219.286 123.304 218.677 123.273C217.623 123.218 216.546 123.665 215.505 123.53C214.789 123.437 214.142 122.854 213.439 122.831C212.564 122.802 212.28 123.47 211.586 122.532C211.444 122.493 211.356 123.045 211.299 123.055C211.313 123.052 210.639 123.152 210.559 123.183C210.421 123.236 209.882 123.483 209.718 123.485C209.364 123.492 209.172 123.238 208.797 123.233C208.176 123.222 206.193 123.769 206.248 122.62C204.032 123.441 202.141 123.121 199.866 123.315C198.823 123.405 198.167 123.265 197.174 123.073C195.931 122.833 195.105 123.135 193.865 123.196C192.673 123.254 192.297 122.75 191.291 122.295C190.894 122.115 190.632 121.878 190.146 121.978C189.868 122.035 190.066 122.502 189.984 122.534C189.556 122.699 189.257 122.524 188.671 122.564C187.589 122.638 187.158 123.543 186.046 122.694C186.415 122.649 186.785 122.603 187.155 122.559C186.091 122.108 184.687 121.878 184.945 123.52C184.038 123.392 184.823 122.775 184.377 122.553C183.931 122.333 183.432 122.702 182.87 122.885C181.387 123.366 180.15 123.127 178.603 123.041C176.846 122.943 172.735 124.377 171.476 122.515C171.438 122.907 171.017 124 170.457 123.949C170.274 123.932 170.783 122.772 170.841 122.649C170.552 123.264 169.235 123.38 168.586 123.699C168.659 123.369 168.731 123.038 168.804 122.709C168.201 123.35 167.908 122.959 167.199 123.173C166.889 123.267 166.441 123.906 166.175 123.945C165.867 123.587 165.478 123.433 165.011 123.483C164.7 123.405 164.389 123.39 164.078 123.437C162.833 123.527 161.698 124.219 160.46 123.748C159.389 123.34 158.974 122.29 158.335 123.96C158.167 123.663 157.999 123.366 157.831 123.07C157.623 123.392 157.416 123.714 157.208 124.036C156.398 123.505 156.348 123.198 155.415 123.393C155.196 123.48 154.971 123.468 154.741 123.356C154.686 123.52 154.631 123.683 154.576 123.846C154.554 124.258 154.432 124.393 154.21 124.254C154.024 124.186 153.855 124.085 153.705 123.948C153.087 123.995 152.299 124.158 151.636 124.068C151.38 124.034 149.777 123.187 149.658 123.319ZM168.55 112.263C168.622 112.374 168.695 112.486 168.768 112.597C167.766 113.127 167.53 112.823 167.426 111.76C167.916 111.769 167.999 112.631 168.55 112.263ZM169.171 111.639C169.653 111.852 170.207 112.27 170.661 111.71C170.967 112.599 168.695 113.813 169.171 111.639ZM172.288 112.032C173.301 112.717 170.87 112.166 170.874 112.167C171.311 111.764 171.782 111.719 172.288 112.032ZM181.003 108.213C181.35 109.966 182.309 109.917 183.856 109.102C186.112 107.913 186.493 105.966 186.65 103.641C186.801 101.412 187.074 100.55 189.372 101.015C190.976 101.34 192.333 101.067 193.951 101.022C195.677 100.974 196.285 101.238 196.423 103.014C196.563 104.792 196.879 106.143 198.169 107.496C199.482 108.872 201.231 109.693 202.936 110.463C203.813 110.859 204.636 111.284 205.606 111.37C205.982 111.403 207.938 111.156 207.979 111.775C208.01 112.24 205.301 113.553 205.013 113.709C203.757 114.393 202.504 115.006 201.131 115.42C197.974 116.372 194.626 116.429 191.355 116.371C186.082 116.278 178.794 114.048 175.641 109.369C177.428 108.984 179.216 108.598 181.003 108.213ZM180.53 93.0293C179.695 92.329 179.155 91.2714 178.462 90.4423C178.113 90.024 177.856 89.8909 177.524 89.6815C177.173 89.4612 176.976 89.773 176.684 89.255C175.929 87.9161 178.259 86.0321 175.788 85.5169C174.952 85.3421 172.939 86.0046 172.695 84.8068C172.35 83.1129 175.583 83.0021 176.344 82.1424C177.856 80.4332 176.83 77.5355 177.751 75.5635C178.623 73.6956 180.874 73.3638 182.651 72.8025C185.126 72.021 187.632 71.5678 190.146 70.9421C191.903 70.505 194.823 68.7482 196.453 70.3004C193.938 70.8588 195.4 71.7355 197.077 72.2303C198.976 72.7912 200.988 73.0099 202.956 73.1662C204.982 73.3269 207.046 73.3575 209.047 72.9537C210.898 72.5802 212.965 70.9716 214.906 71.3836C213.829 73.2558 210.621 74.2785 208.672 74.769C207.679 75.0188 207.043 74.9406 207.176 76.179C207.306 77.3792 208.349 78.5826 208.585 79.8327C208.896 81.4873 208.624 83.0076 208.035 84.5637C207.456 86.0946 207.32 86.2945 207.827 87.7575C208.616 90.0354 206.92 92.5529 205.353 94.2071C199.015 100.896 186.885 98.362 180.53 93.0293ZM196.635 53.055C196.66 53.1233 196.639 53.0974 196.635 53.055V53.055ZM198.609 69.9343C198.346 70.1307 196.833 70.5423 196.896 69.9508C196.981 69.1583 198.344 69.4446 198.609 69.9343ZM202.058 53.9241C201.703 53.6594 200.709 53.7682 201.436 52.7647C201.673 53.2062 201.866 53.5651 202.058 53.9241ZM178.187 47.5809C178.64 46.4046 179.141 45.3104 179.345 44.0584C179.471 43.287 179.221 42.4061 180.299 42.2851C178.925 41.6858 178.911 39.3203 178.83 38.0941C178.718 36.4053 178.185 34.1443 178.927 32.5725C179.689 30.958 180.717 30.9847 181.027 32.9076C181.148 33.6604 180.684 33.904 180.596 34.4283C180.423 35.4655 180.767 35.2381 181.436 34.4479C181.712 35.2511 181.818 36.458 182.943 36.4069C182.868 36.1897 182.437 35.7106 182.581 35.4408C182.802 35.0264 183.882 35.6595 184.019 35.7553C185.005 36.445 185.219 37.0746 184.515 37.9445C185.489 38.0494 184.672 38.9016 185.3 39.1239C186.259 39.4629 185.616 37.8569 185.512 37.5745C186.096 37.8023 186.291 38.0623 186.661 38.5234C186.878 38.8415 187.076 39.1718 187.254 39.5135C187.452 40.1372 187.861 40.2935 188.481 39.9825C189.723 40.3721 191.437 40.3112 192.55 40.9922C193.059 41.3033 193.242 41.9839 193.667 42.2423C194.145 42.5333 194.785 42.4014 195.298 42.584C195.111 43.0105 195.263 43.2415 195.754 43.2776C196.136 43.3125 196.505 43.3985 196.862 43.5352C197.13 43.3337 197.421 43.1747 197.734 43.0588C197.946 43.4308 198.244 43.5227 198.63 43.3353C199.775 43.5498 200.325 43.983 201.053 44.6306C201.706 45.2119 201.174 45.259 201.89 45.2075C202.178 45.1867 202.682 44.6989 203.34 44.794C203.718 44.8678 204.083 44.9845 204.435 45.1439C204.815 45.4691 205.219 45.5099 205.645 45.2668C206.339 45.6058 206.407 46.2063 207.253 46.2884C208.188 46.3795 207.887 45.2138 208.529 46.8578C209.394 45.1148 209.711 47.8915 210.603 48.1158C211.528 48.3483 211.628 47.5986 212.42 48.4178C212.657 48.6633 212.644 49.069 212.91 49.3294C213.347 49.7555 213.937 49.6703 214.316 50.2515C214.105 49.9271 214.366 51.4011 214.362 51.3524C214.421 52.0028 213.843 52.7313 215.027 52.676C215.014 52.7443 214.445 53.5734 214.334 53.4795C214.307 53.3849 214.284 53.289 214.266 53.192C214.139 53.2466 214.082 54.0364 214.106 54.1758C214.206 54.1916 214.247 54.1169 214.229 53.952C214.034 54.5611 214.328 54.948 213.954 55.5261C213.714 55.8957 213.06 56.1733 212.711 56.4015C211.872 56.9522 211.05 57.5044 210.231 58.0903C208.321 59.4571 206.182 61.105 203.777 61.3902C204.985 60.2041 211.936 55.7154 208.449 54.4268C207.803 54.188 206.626 53.9618 205.949 53.9115C205.108 53.8491 204.239 54.3306 203.311 54.0301C202.192 53.668 202.614 52.6159 201.93 52.2384C200.478 51.4376 200.821 53.3208 200.364 53.8141C199.884 53.3102 199.986 53.0652 199.229 53.0196C198.459 52.9733 198.276 53.6845 197.378 53.2415C196.141 52.6308 196.795 51.4145 195.04 51.3858C195.07 51.1187 195.324 50.3725 194.989 50.1644C194.538 50.7499 194.887 51.4046 194.468 51.9682C194.259 52.251 193.803 52.4764 193.471 52.568C192.693 52.7816 192.582 53.1908 192.709 52.0193C192.132 53.0581 190.364 52.6308 189.312 52.5263C187.602 52.3563 185.785 52.0326 184.146 51.4844C182.63 50.9769 181.82 50.1054 180.569 49.3125C180.097 49.0124 179.871 49.1271 179.193 48.941C178.524 48.7572 177.872 48.4009 178.187 47.5809ZM181.795 29.1875C182.053 29.032 182.239 31.3527 181.926 31.7863C181.353 30.8802 180.338 29.5512 181.795 29.1875ZM182.62 28.2618C183.45 27.5105 182.873 29.451 182.721 29.7766C182.413 29.5794 182.106 29.3823 181.798 29.1851C182.191 28.9444 182.289 28.5614 182.62 28.2618ZM213.94 25.1344C221.609 26.7438 229.209 29.7522 235.36 34.7032C240.963 39.2127 244.918 45.6109 247.135 52.4167C249.436 59.481 248.663 67.3187 243.188 72.7252C240.303 75.573 236.495 77.2912 232.864 78.9678C231.125 79.771 229.334 80.4402 227.588 81.2249C226.334 81.7885 224.803 82.6903 223.372 82.534C224.102 81.7658 225.161 81.75 226.045 81.2803C227.112 80.7124 227.984 79.6225 228.904 78.8441C229.818 78.0712 231.845 75.6374 233.248 76.2265C233.054 74.93 234.531 74.328 235.197 73.473C235.901 72.5685 235.951 71.5108 237.248 71.2147C235.855 70.1244 236.282 68.068 236.585 66.5838C236.973 64.6857 237.152 62.9431 237.305 61.0116C237.58 57.5291 237.802 53.0931 235.878 50.0316C235.254 49.0376 234.459 48.1241 233.902 47.0915C233.23 45.8473 233.379 44.7519 233.379 43.3879C232.151 44.2127 231.892 42.531 231.374 41.7113C230.985 41.0963 230.474 40.7526 230.348 39.9789C230.257 39.4157 230.868 39.3207 230.533 38.7304C230.122 39.0407 229.958 39.5214 229.75 39.9675C229.371 39.8159 229.818 39.2881 229.601 39.1165C229.594 39.1117 228.863 38.794 228.899 38.84C228.429 38.2434 228.277 37.2533 228.047 36.5432C227.184 36.9799 227.346 36.9285 226.384 36.1988C226.214 36.0703 225.368 35.4804 225.288 35.2876C224.916 34.3858 225.568 34.92 225.386 34.3603C224.862 32.7528 221.923 33.0568 221.69 30.6481C220.256 31.5581 219.71 30.2687 218.863 29.3517C217.994 28.4122 216.538 28.0509 216.616 26.5608C216.165 26.7152 215.714 26.8691 215.263 27.0227C215.497 25.6477 213.454 25.7353 212.715 25.0377C213.125 25.0429 213.534 25.0751 213.94 25.1344ZM215.108 110.297C215.819 109.661 215.603 110.507 216.06 110.41C216.451 110.327 216.529 110.032 216.904 109.941C218.449 109.567 220.759 110.037 222.384 109.956C224.267 109.863 227.493 110.254 228.39 112.456C228.93 113.782 228.106 113.331 227.197 113.232C226.493 113.156 225.867 113.299 225.17 113.292C224.825 113.345 224.482 113.34 224.14 113.276C223.972 113.166 223.874 113.011 223.843 112.811C222.874 112.665 221.844 113.238 220.77 113.267C219.336 113.305 218.062 113.03 216.973 112.062C216.54 112.708 216.245 113.028 215.466 113.1C215.446 113.102 214.685 112.796 214.568 112.765C214.412 112.725 214.018 113.052 213.717 112.958C214.25 112.109 214.328 110.994 215.108 110.297ZM313.007 117.96C313.26 117.08 313.472 116.189 313.702 115.303C317.241 119.331 320.337 124.723 321.73 129.888C322.635 133.245 324.044 139.328 319.729 141.059C316.214 142.469 314.254 137.414 313.365 134.924C311.402 129.427 311.402 123.553 313.007 117.96ZM154.706 54.8455C154.751 54.8364 152.415 56.195 153.185 55.0949C153.494 54.6526 154.666 54.3416 155.187 54.3416L154.706 54.8455ZM152.459 55.4212C152.188 55.6486 151.915 55.8733 151.64 56.0948C151.376 55.6769 151.111 55.259 150.846 54.8412C151.368 54.6212 153.581 54.4563 152.459 55.4212ZM150.812 97.6601C150.324 97.329 149.936 97.505 149.789 98.0607C149.789 97.5077 150.077 96.2231 150.52 96.0734C150.806 95.9764 149.569 94.5135 149.917 94.1305C150.801 94.6368 150.271 95.1218 150.53 95.7753C150.647 96.0703 150.998 96.3491 151.075 96.5758C151.205 96.9603 151.733 98.2826 150.812 97.6601ZM148.418 94.3681C147.917 94.4962 148.794 95.3225 148.793 95.6878C148.792 95.9639 148.461 96.1759 148.324 96.5538C148.027 97.3726 148.538 97.9256 147.697 98.5505C147.697 96.7564 146.493 92.0026 148.807 91.1284C147.679 90.2396 148.605 89.2138 149.49 90.2773C150.34 91.3 149.799 94.0147 148.418 94.3681ZM147.212 87.2885C146.758 85.6759 145.389 85.1119 143.824 85.2074C143.884 84.3818 144.51 83.1914 144.962 84.6795C145.148 84.2397 145.276 83.6659 145.7 83.3744C146.413 85.6115 149.971 86.8475 147.756 89.2715C147.575 88.6105 147.399 87.9483 147.212 87.2885ZM143.079 85.3276C134.841 85.9249 123.276 87.6341 116.684 81.32C112.386 77.2029 112.615 70.7913 116.089 66.217C118.071 63.6068 120.777 61.7688 123.494 60.0179C124.543 59.342 125.432 58.8959 126.583 58.5074C126.769 58.4874 126.945 58.529 127.109 58.6323C127.173 58.3543 127.33 58.1485 127.579 58.0141C128.024 57.7761 128.657 57.6913 128.913 57.1972C128.64 58.1249 128.5 59.0801 128.399 60.0399C128.177 59.7815 127.955 59.5231 127.734 59.2646C127.549 61.0127 125.727 59.9547 124.64 60.1731C125.356 61.1643 125.869 61.5245 125.93 62.8347C125.397 61.8497 124.281 61.202 123.244 60.8847C123.807 62.5507 124.205 63.5397 123.638 65.3667C122.953 64.9755 122.907 64.0361 122.076 63.8111C121.857 64.9005 121.818 66.1094 121.537 67.1667C119.409 66.1962 119.617 68.8099 120.471 70.1032C120.926 70.7913 121.149 71.5878 121.554 72.2484C122.548 73.8685 121.793 71.4456 122.898 71.5607C122.65 73.2695 122.564 73.4396 123.814 74.6909C125.035 75.9111 125.668 77.6042 126.973 78.7507C127.351 78.2676 126.757 77.7621 126.704 77.2999C127.919 77.5037 128.488 78.7216 129.656 77.6427C130.165 78.6352 130.716 79.7282 131.936 79.932C131.13 78.3995 133.484 79.4387 134.088 79.6563C134.546 79.8213 135.366 79.9525 135.543 80.0161C136.538 80.3754 135.856 79.7306 136.46 80.9084C137.346 80.6409 137.681 79.9053 138.741 80.5266C139.603 81.0321 139.605 81.8977 139.802 82.7845C140.008 82.2045 140.215 81.6248 140.442 81.0525C140.674 81.1499 141.645 82.2182 141.539 82.2233C143.811 82.1118 143.73 83.5225 143.079 85.3276ZM131.513 56.4078C131.969 56.0877 132.526 56.5139 133.038 56.3992C133.747 56.2409 134.15 55.6333 134.943 55.5681C134.722 56.2727 134.308 56.2067 133.958 56.7601C133.839 56.9486 133.901 57.4011 133.795 57.5095C132.907 58.4191 132.6 57.6768 131.694 56.9883C131.773 57.8186 131.932 58.0809 131.15 58.3036C130.442 58.5055 129.273 57.762 128.916 57.1917C129.217 56.5893 130.967 56.7911 131.513 56.4078ZM137.165 55.1102C137.934 55.1836 137.008 57.4529 135.905 55.2516C136.32 55.1612 136.74 55.1141 137.165 55.1102ZM141.12 54.6715C142.333 54.4241 146.379 53.271 146.83 55.1593C146.91 55.1122 147.211 54.0462 147.351 54.1762C147.912 54.6974 147.974 55.3883 147.932 56.1121C147.254 54.7013 147.495 55.9405 147.036 55.8438C146.916 55.8183 146.733 56.0422 146.43 55.9499C146.032 55.8285 145.747 54.9822 145.496 54.6954C145.077 55.2924 144.559 56.061 143.722 56.0092C143.129 55.9727 142.174 54.4465 142.941 56.1172C142.491 55.9683 141.969 55.6314 141.467 55.6989C140.905 55.7747 140.613 56.3297 140.086 56.4192C138.917 56.6171 138.741 55.4931 137.983 54.8828C139.029 54.8219 140.087 54.882 141.12 54.6715ZM148.459 54.6534C148.545 54.2662 149.606 54.1099 149.876 54.2328C150.536 54.5325 150.292 54.928 150.171 55.5862C149.681 55.3545 149.192 55.1231 148.702 54.8914C149.433 56.0681 148.109 56.2389 148.459 54.6534ZM353.936 123.577C353.85 120.757 353.768 117.888 353.053 115.143C352.552 113.222 351.323 109.777 348.999 109.443C345.493 108.94 343.552 115.869 342.569 118.247C342.373 115.447 342.545 112.467 341.487 109.809C340.64 107.679 338.501 105.662 336.658 108.054C335.019 110.182 334.704 113.325 334.272 115.886C333.713 119.205 333.377 122.549 332.969 125.887C331.367 122.793 331.088 119.251 329.822 116.035C328.628 113 326.748 110.101 324.938 107.402C323.46 105.197 321.661 103.124 319.345 101.776C317.329 100.603 313.804 99.3344 311.883 101.283C310.28 102.908 310.531 105.084 310.614 107.135C310.652 108.049 310.795 108.675 309.992 109.135C309.597 109.362 308.98 109.245 308.546 109.365C307.847 109.561 307.311 109.891 306.72 110.331C302.574 113.412 300.663 118.965 300.071 123.916C299.323 130.189 301.768 135.567 303.872 141.306C304.207 142.221 305.273 144.161 305.125 145.183C304.964 146.302 303.56 146.331 302.612 146.354C299.75 146.424 296.759 146.211 293.911 145.945C287.131 145.31 280.357 142.046 274.286 139.132C273.178 138.6 271.611 138.296 270.707 137.458C269.857 136.671 269.633 135.41 268.9 134.507C267.099 132.292 265.952 130.401 263.301 129.062C260.601 127.7 257.846 126.44 255.212 124.947C251.955 123.101 248.945 120.761 245.824 118.694C240.023 114.852 234.261 110.64 228.11 107.373C225.252 105.855 222.059 105.609 219.091 104.366C216.202 103.155 212.655 103.154 209.64 103.918C208.171 104.291 207.171 105.174 205.82 105.75C204.237 106.425 202.946 105.68 201.553 104.874C199.424 103.642 197.314 101.635 200.345 100.306C201.374 99.8556 202.662 99.6847 203.56 98.9758C204.518 98.2206 205.286 96.8271 206.065 95.881C207.795 93.7778 208.829 91.3566 211.362 90.0487C214.164 88.6023 217.484 88.2087 220.471 87.2634C223.707 86.2395 226.876 85.022 230.052 83.8265C235.774 81.6727 241.723 79.3472 245.835 74.606C249.381 70.5156 250.927 65.2359 250.783 59.8734C250.491 48.9107 244.619 37.7851 236.193 30.9309C225.861 22.5261 212.718 19.7235 199.667 19.8704C193.542 19.9395 186.233 20.7411 181.122 24.4624C176.708 27.6766 175.974 33.2983 176.631 38.373C176.897 40.4325 177.808 43.1503 176.355 44.9652C175.542 45.9804 174.083 46.2318 172.988 46.8649C171.612 47.6602 170.399 48.4225 168.84 48.8432C162.22 50.6309 155.247 50.0084 148.479 49.9095C137.203 49.7445 125.646 52.7973 117.234 60.7425C110.442 67.158 108.405 79.2557 116.689 85.5102C123.382 90.5628 133.881 90.0071 141.773 89.1258C144.221 88.852 145.903 88.4546 145.909 91.4489C145.915 94.7196 145.374 98.1381 146.208 101.349C147.522 106.406 152.381 106.527 156.678 105.438C158.945 104.863 161.136 103.999 163.289 103.094C166.446 101.767 169.34 99.8155 172.458 98.4908C174.572 97.593 176.155 100.497 178.03 98.4837C178.377 98.1118 178.441 97.5572 178.963 97.3667C179.782 97.0687 181.156 98.1141 181.874 98.4448C182.95 98.9401 184.034 99.3042 184.463 100.497C184.866 101.612 184.689 103.386 184.304 104.486C183.468 106.878 181.215 106.405 179.158 106.245C175.57 105.966 172.007 105.374 168.421 105.125C165.203 104.902 162.19 105.864 159.415 107.45C153.586 110.783 148.817 116.083 143.763 120.442C141.162 122.686 138.648 125.109 135.819 127.063C134.589 127.912 133.257 128.693 132.188 129.749C131.127 130.796 131.011 131.748 130.648 133.141C130.002 135.622 126.794 136.835 124.788 138.144C121.952 139.995 118.945 141.301 115.766 142.437C109.032 144.842 102.246 146.521 95.2065 147.763C91.76 148.371 88.3422 148.77 84.8619 149.098C81.8622 149.381 78.6722 150.305 75.6761 149.567C76.5391 148.167 78.0681 147.327 79.2591 146.245C80.7944 144.85 82.1003 143.197 83.2622 141.485C85.5241 138.151 87.1104 134.573 87.4748 130.528C87.8032 126.888 87.4266 122.534 85.2303 119.459C84.4716 118.397 82.9708 118.108 82.2917 117.151C81.6166 116.2 81.874 114.562 81.5044 113.453C80.5634 110.632 77.7708 107.137 75.3132 105.499C72.6469 103.721 68.7466 103.068 65.6664 103.994C59.9604 105.711 56.4555 111.808 53.8445 116.737C52.4182 113.736 54.8068 109.283 52.0204 106.825C49.6703 104.752 47.8051 108.768 47.019 110.486C43.3293 118.552 42.4914 127.107 40.9454 135.737C40.3154 135.116 40.6383 133.522 40.6975 132.782C40.8077 131.403 40.7975 130.05 40.8003 128.665C40.8077 125.167 41.4581 121.653 41.16 118.158C40.9878 116.138 40.3437 111.877 37.4083 112.549C34.9189 113.118 33.3596 116.619 32.5774 118.759C31.4493 121.846 31.1888 124.902 31.259 128.163C31.3367 131.766 30.6502 135.31 30.4839 138.908C30.1607 145.897 30.48 152.825 32.4853 159.57C35.769 170.615 43.3191 179.792 53.3958 185.334C58.9476 188.388 65.1067 190.32 71.4391 190.735C74.8707 190.96 78.1835 190.552 81.5856 190.197C84.9431 189.847 88.3182 189.685 91.6698 189.274C99.134 188.359 106.407 185.995 113.191 182.816C116.763 181.142 120.121 179.087 123.634 177.302C125.043 176.587 125.996 175.691 127.198 174.695C128.391 173.709 128.721 173.631 130.077 173.631C129.679 172.567 130.841 172.239 131.357 171.566C131.328 171.892 131.299 172.219 131.27 172.545C131.664 171.691 132.031 171.699 132.37 172.57C132.705 171.595 132.954 170.592 133.359 169.642C134.907 170.425 134.777 172.288 136.847 170.928C138.552 169.808 140.12 168.488 141.858 167.391C145.818 164.892 149.232 161.64 153.203 159.169C153.203 161.575 153.373 164.003 153.051 166.397C152.745 168.673 151.895 170.801 151.219 172.98C149.973 177.001 149.886 181.298 148.505 185.279C147.933 186.927 146.445 188.306 146.018 189.91C145.583 191.547 146.588 192.859 144.903 193.934C143.715 194.692 142.231 195.012 140.915 195.47C138.909 196.169 137.004 197.156 135.051 197.993C125.89 201.919 116.954 205.917 108.466 211.195C100.411 216.203 92.2331 221.376 84.8337 227.325C78.4118 232.487 71.9201 239.162 70.3568 247.584C68.8399 255.753 72.8815 264.521 80.9968 267.211C85.2165 268.61 89.987 268.437 94.3812 268.497C99.1096 268.562 104.12 267.423 108.769 266.598C113.679 265.728 118.504 264.365 123.428 263.587C128.152 262.841 132.485 261.173 137.132 260.146C142.081 259.051 147.158 258.457 152.134 257.473C154.375 257.029 156.57 256.375 158.816 255.965C161.276 255.516 163.762 255.347 166.198 254.752C170.922 253.597 175.446 251.736 180.19 250.662C182.324 250.179 184.424 249.532 186.558 249.081C188.523 248.665 190.054 247.561 192.023 248.468C193.614 249.201 194.883 250.457 196.388 251.332C198.341 252.467 200.4 253.484 202.435 254.461C206.526 256.424 210.769 257.78 215.045 259.254C219.538 260.802 223.95 262.568 228.604 263.59C233.376 264.638 238.244 264.93 243.048 265.759C252.888 267.456 262.644 268.218 272.632 268.28C277.681 268.312 282.729 267.713 287.765 267.784C292.224 267.847 296.101 268.852 300.178 266.481C306.693 262.693 314.25 256.988 314.09 248.701C313.944 241.195 309.442 234.024 305.219 228.104C300.09 220.915 292.778 215.853 285.612 210.893C277.974 205.609 269.395 201.957 261.367 197.344C257.262 194.985 253.476 192.446 249.018 190.77C246.89 189.97 244.814 189.042 242.711 188.18C241.019 187.487 238.575 187.104 237.127 185.954C236.223 185.236 236.136 184.15 235.898 183.082C235.369 180.721 234.539 178.482 233.734 176.205C232.18 171.808 231.147 167.329 230.479 162.717C229.842 158.321 228.429 153.749 229.161 149.281C233.975 153.938 238.923 158.415 243.849 162.949C245.695 164.648 247.507 166.383 249.363 168.072C250.756 169.34 252.498 171.223 254.44 171.599C256.92 172.08 256.014 169.336 257.717 168.911C258.758 168.651 261.897 171.296 262.72 171.818C267.936 175.129 273.711 177.228 279.448 179.482C285.463 181.845 291.65 183.944 298.123 184.539C304.102 185.089 310.216 184.383 315.985 182.755C327.476 179.51 335.931 171.813 342.137 161.836C349.207 150.467 354.353 137.149 353.936 123.577Z" fill="#1D1D1D"/>
<path fill-rule="evenodd" clip-rule="evenodd" d="M178.32 98.7921C178.319 98.7954 178.301 98.8329 178.301 98.8329C178.323 98.8179 178.329 98.8044 178.32 98.7921Z" fill="#1D1D1D"/>
<path fill-rule="evenodd" clip-rule="evenodd" d="M178.875 98.9389C178.832 98.5767 178.739 98.2222 178.596 97.875C178.216 98.4781 177.876 98.7363 178.375 99.375C178.542 99.2296 178.708 99.0843 178.875 98.9389Z" fill="#1D1D1D"/>
<path fill-rule="evenodd" clip-rule="evenodd" d="M205.372 185.129C205.797 184.677 205.053 184.506 204.77 184.5C204.798 184.986 204.558 186.15 205.222 186.375C205.063 185.936 205.113 185.52 205.372 185.129Z" fill="#1D1D1D"/>
<path fill-rule="evenodd" clip-rule="evenodd" d="M194.147 90.3912C193.416 91.8033 195.031 92.2414 195.967 91.5592C196.67 91.0463 197.086 89.7388 197.202 88.8999C197.576 86.1853 195.676 83.6017 194.729 81.1931C194.485 80.5705 194.149 78.4355 193.361 78.3767C192.456 78.3093 192.389 80.2759 192.377 80.7833C192.342 82.3133 192.747 83.8716 193.222 85.3159C193.734 86.873 195.002 88.742 194.147 90.3912Z" fill="#1D1D1D"/>
<path fill-rule="evenodd" clip-rule="evenodd" d="M197.625 84.7275C200.436 87.2303 202.684 83.0618 202.488 80.596C202.439 79.9851 202.027 77.7327 200.868 78.5524C200.286 78.9642 200.782 80.3025 200.505 80.89C199.16 83.7387 197.866 79.3202 196.961 78.9731C195.859 78.5505 195.748 79.9978 195.75 80.7713C195.753 82.3068 196.483 83.7106 197.625 84.7275Z" fill="#1D1D1D"/>
<path fill-rule="evenodd" clip-rule="evenodd" d="M187.422 85.1163C188.084 84.0737 188.898 82.6754 188.988 81.4265C189.128 79.4851 187.997 79.6471 187.066 81.0017C186.408 81.9585 185.915 83.5814 184.463 83.1781C182.67 82.6806 183.218 80.2704 182.214 79.125C179.68 82.5286 184.476 89.7553 187.422 85.1163Z" fill="#1D1D1D"/>
<path fill-rule="evenodd" clip-rule="evenodd" d="M191.22 95.5322C192.268 95.7587 195.001 95.6751 194.054 94.0704C192.86 92.0488 188.889 95.028 191.22 95.5322Z" fill="#1D1D1D"/>
<path fill-rule="evenodd" clip-rule="evenodd" d="M227.937 35.25C228.128 34.6787 227.865 34.5749 227.408 34.125C226.974 34.5248 227.529 34.9455 227.937 35.25Z" fill="#1D1D1D"/>
<path fill-rule="evenodd" clip-rule="evenodd" d="M247.485 138.731C248.177 138.841 248.399 138.475 248.153 137.634C247.062 137.563 246.84 137.929 247.485 138.731Z" fill="#1D1D1D"/>
<path fill-rule="evenodd" clip-rule="evenodd" d="M209.729 50.4562C210.491 50.805 210.199 51.5204 210.186 52.125C210.579 51.6981 211.373 50.9176 211.049 50.3043C210.552 49.3588 209.251 50.2381 209.729 50.4562Z" fill="#1D1D1D"/>
<path fill-rule="evenodd" clip-rule="evenodd" d="M183.75 38.5555C183.634 38.3287 183.518 38.1018 183.401 37.875C182.928 38.2551 182.196 39.2602 182.949 39.75C183.258 39.3755 183.525 38.9774 183.75 38.5555Z" fill="#1D1D1D"/>
<path fill-rule="evenodd" clip-rule="evenodd" d="M192.901 45.2264C193.85 45.9706 193.395 43.6865 193.366 43.5C193.225 43.7679 192.422 44.8505 192.901 45.2264Z" fill="#1D1D1D"/>
<path fill-rule="evenodd" clip-rule="evenodd" d="M192.375 44.0665C192.302 43.8778 192.23 43.6891 192.157 43.5C191.773 43.8561 191.301 44.5834 191.937 45C192.111 44.7082 192.257 44.3972 192.375 44.0665Z" fill="#1D1D1D"/>
<path fill-rule="evenodd" clip-rule="evenodd" d="M198.402 51.91C198.479 51.9816 198.557 52.0531 198.634 52.125C198.947 51.4936 198.591 51.0193 198 51C198.042 51.3545 198.176 51.6578 198.402 51.91Z" fill="#1D1D1D"/>
<path fill-rule="evenodd" clip-rule="evenodd" d="M172.974 122.938C173.351 122.681 173.693 122.389 174 122.061C172.886 121.38 173.554 122.856 172.212 121.95C171.923 122.349 172.395 123.243 172.974 122.938Z" fill="#1D1D1D"/>
<path fill-rule="evenodd" clip-rule="evenodd" d="M219.788 184.875C220.212 184.225 220.288 184.243 219.71 183.75C219.227 184.553 219.277 184.347 219.788 184.875Z" fill="#1D1D1D"/>
<path fill-rule="evenodd" clip-rule="evenodd" d="M131.25 81.4037C131.481 81.6443 131.711 81.8848 131.942 82.125C132.05 81.8103 132.637 80.921 132.238 80.625C131.909 80.8846 131.579 81.1441 131.25 81.4037Z" fill="#1D1D1D"/>
<path fill-rule="evenodd" clip-rule="evenodd" d="M139.453 83.7833C139.084 83.7218 138.204 83.4532 138 83.7955C138.539 84.237 139.754 83.8339 139.453 83.7833Z" fill="#1D1D1D"/>
</svg>
