<svg width="421" height="300" viewBox="0 0 421 300" fill="none" xmlns="http://www.w3.org/2000/svg">
<path fill-rule="evenodd" clip-rule="evenodd" d="M374.498 177.339C365.306 188.977 349.677 190.816 335.797 190.701C327.461 190.633 319.11 190.006 310.939 188.311C306.533 187.397 302.157 186.186 297.901 184.732C295.089 183.771 290.903 183.29 289.707 180.284C286.551 172.35 288.873 162.402 290.172 154.35C290.834 150.254 291.33 146.134 291.973 142.035C292.384 139.413 292.581 136.511 293.683 134.057C294.972 131.183 296.601 131.757 299.328 132.551C303.085 133.646 306.943 134.101 310.806 134.69C320.234 136.126 328.459 139.024 337.027 143.13C345.499 147.19 353.717 151.198 361.274 156.844C365.103 159.705 368.402 162.811 371.476 166.457C373.85 169.274 377.394 173.672 374.498 177.339ZM334.315 229.03C334.241 230.283 319.834 226.5 317.938 226.076C305.498 223.291 292.812 220.12 281.068 215.089C270.106 210.393 260.448 205.02 251.822 196.676C247.801 192.787 244.185 188.692 240.724 184.33C238.99 182.144 236.62 182.398 234.686 180.549C232.946 178.884 231.612 177.584 232.156 175.096C236.503 176.239 244.53 183.425 249.037 179.796C251.606 177.728 248.043 175.567 246.398 174.369C243.307 172.115 240.663 169.334 238.205 166.416C242.425 167.232 246.353 168.81 250.026 171.005C251.657 171.981 257.25 175.518 258.552 172.146C259.353 170.07 255.561 167.462 254.378 166.314C251.475 163.494 248.341 160.203 246.8 156.412C250.611 155.53 254.203 158.469 256.798 160.864C259.679 163.522 263.211 166.312 265.626 169.375C266.873 170.955 267.144 172.821 268.117 174.525C269.213 176.442 270.965 178.085 272.64 179.504C275.866 182.237 279.64 184.25 283.514 185.914C292.365 189.718 301.853 192.41 311.288 194.298C315.917 195.224 320.431 195.651 325.129 195.808C328.781 195.931 330.397 197.02 331.791 200.378C335.563 209.463 334.878 219.457 334.315 229.03ZM225.967 159.805C223.856 161.777 221.113 163.013 218.907 164.909C216.965 166.576 214.725 168.356 212.558 169.704C210.245 171.143 208.516 170.134 206.433 168.832C203.988 167.304 201.177 166.684 198.658 165.317C189.95 160.587 179.297 148.997 180.922 138.355C181.611 133.844 183.948 129.406 188.191 127.36C192.044 125.501 197.646 124.47 201.768 126.024C204.094 126.9 205.758 128.835 207.247 130.737C208.985 132.954 209.65 132.604 211.419 130.466C214.586 126.64 219.807 123.284 224.968 123.365C227.533 123.405 230.081 123.945 232.392 125.008C232.705 125.152 232.879 125.588 233.194 125.736C233.58 125.917 234.214 125.54 234.482 125.709C235.159 126.137 235.834 127.472 236.224 128.15C237.79 130.868 240.61 136.201 237.768 138.49C237.767 138.491 237.895 141.587 237.856 141.94C237.655 143.787 237.015 145.312 236.191 147.001C233.716 152.076 230.061 155.984 225.967 159.805ZM230.176 202.744C228.177 203.364 226.023 197.11 227.941 196.111C229.77 195.159 231.987 202.183 230.176 202.744ZM198.767 195.265C198.075 197.628 197.782 200.309 196.089 202.232C194.538 200.396 194.385 197.007 195.889 195.119C196.748 194.042 199.525 192.684 198.767 195.265ZM262.762 153.869C262.751 153.929 265.168 155.083 263.989 156.345C262.377 158.068 262.599 154.714 262.762 153.869ZM272.753 134.614C272.725 137.003 267.658 136.426 267.694 134.023C267.738 131.066 272.782 132.081 272.753 134.614ZM266.704 114.648C267.205 112.461 276.019 109.418 275.779 113.23C275.659 115.141 265.64 119.298 266.704 114.648ZM176.346 188.822C175.358 190.007 173.954 190.475 172.77 191.385C171.528 192.338 170.64 193.576 169.556 194.695C166.577 197.769 162.991 200.295 159.778 203.118C153.869 208.308 148.21 213.888 141.659 218.291C129.954 226.156 116.379 230.458 102.903 234.225C101.787 234.537 98.571 235.797 97.4666 234.859C96.2752 233.847 96.8809 230.286 96.9359 228.94C97.1593 223.421 97.804 217.836 97.7343 212.325C97.7053 210.061 97.0411 206.843 98.2247 204.772C99.5461 202.459 103.235 201.782 105.518 200.911C112.454 198.266 119.136 193.802 125.263 189.668C132.795 184.586 140.403 179.42 148.154 174.676C155.748 170.028 164.125 166.916 172.596 164.262C172.988 165.085 168.946 167.733 168.484 168.105C166.268 169.885 163.857 171.731 162.212 174.082C161.047 175.746 159.853 179.511 163.069 179.607C164.628 179.654 166.932 178.149 168.346 177.663C170.681 176.859 173.086 176.294 175.529 175.927C173.429 178.234 166.312 182.379 167.607 186.216C168.863 189.939 176.13 185.594 178.632 185.594C178.222 186.893 177.191 187.808 176.346 188.822ZM90.4958 199.214C85.8422 200.848 81.0721 201.777 76.2689 202.831C71.6909 203.836 67.4592 204.594 62.77 204.005C56.2957 203.193 49.1311 200.516 48.3103 193.174C47.337 184.475 53.4929 176.481 58.7788 170.24C65.2118 162.647 72.4355 155.858 80.2643 149.711C88.0842 143.571 96.5246 138.157 105.367 133.586C112.095 130.109 119.692 127.998 126.806 125.388C128.159 124.892 131.902 123.148 133.168 124.593C134.191 125.762 132.798 127.71 132.332 128.795C131.423 130.911 131.297 133.042 131.063 135.314C130.014 145.46 128.752 155.603 128.171 165.793C128.009 168.633 127.724 171.604 127.89 174.446C127.982 176.02 128.802 178.025 128.256 179.561C127.205 182.516 122.394 184.471 119.844 185.791C115.279 188.153 110.445 189.916 105.833 192.175C100.768 194.657 95.8367 197.339 90.4958 199.214ZM155.037 133.286C156.315 133.112 158.228 132.764 159.367 133.59C160.852 134.667 160.463 136.166 159.091 136.947C158.008 137.564 155.473 137.733 154.403 137.173C152.579 136.219 152.888 133.582 155.037 133.286ZM162.112 156.781C161.08 158.497 157.307 159.622 157.636 156.42C157.917 153.679 164.013 153.622 162.112 156.781ZM160.711 108.444C162.371 109.085 165.382 109.634 165.874 111.765C166.332 113.748 164.45 113.616 163.091 113.071C161.974 112.623 156.996 108.409 160.711 108.444ZM420.705 184.083C419.736 180.319 420.474 176.152 419.939 172.296C419.421 168.559 418.487 165.125 417.147 161.602C414.181 153.805 410.782 146.786 405.974 139.943C396.918 127.056 386.411 115.705 373.723 106.292C361.198 96.9994 347.328 89.4475 332.635 84.1548C317.055 78.5418 301.372 76.5882 284.942 75.5123C280.035 75.1915 275.134 74.8107 270.255 74.192C266.689 73.74 262.219 73.1832 258.694 74.2733C256.479 74.9584 255.241 76.8861 257.654 78.151C259.365 79.048 261.605 79.1552 263.494 79.3935C261.212 86.6299 257.498 93.8909 251.613 98.8735C245.868 103.738 238.18 105.406 230.929 106.64C226.997 107.308 222.594 107.826 218.601 107.537C216.077 107.355 214.107 106.189 213.088 108.784C212.382 110.587 212.047 112.565 211.115 109.843C210.013 106.624 209.472 106.645 206.044 105.731C199.032 103.861 190.994 102.156 184.877 98.113C178.531 93.9186 176.324 87.1331 172.781 80.815C171.905 79.2535 169.262 76.0926 170.613 74.3033C171.848 72.6669 175.864 72.83 177.703 72.6593C179.643 72.4792 181.596 72.4715 183.543 72.3962C184.671 72.3526 186.94 72.8141 186.486 71.1325C185.802 68.5979 178.466 68.9228 176.644 68.8816C173.256 68.8057 169.821 68.884 166.451 69.256C149.737 71.1007 132.873 74.5116 116.7 79.0604C85.3209 87.8848 54.93 104.146 32.0299 127.572C10.0481 150.058 3.08384 187.478 16.5975 216.19C23.6202 231.112 38.8612 237.241 53.6353 242.192C61.428 244.803 69.6799 246.846 77.9637 246.353C81.939 246.116 85.711 245.048 89.5881 244.243C91.2788 243.892 93.2029 243.332 94.9397 243.474C96.2545 243.581 97.5174 244.785 98.7507 244.145C99.6258 243.691 100.006 242.387 101.076 241.831C102.36 241.165 103.917 240.924 105.304 240.588C109.16 239.653 112.892 238.138 116.661 236.895C120.558 235.61 124.235 233.955 127.974 232.281C129.862 231.436 134.231 228 135.461 230.512C136.022 231.658 135.783 233.87 135.92 235.072C136.159 237.175 136.44 239.274 136.748 241.368C137.425 245.979 138.236 250.57 139.066 255.156C140.566 263.43 142.499 271.351 145.73 279.134C148.31 285.348 150.575 292.392 155.366 297.336C157.457 299.494 160.311 300.465 163.31 299.787C166.722 299.015 168.421 295.922 170.492 293.421C175.049 287.917 182.573 283.701 189.521 282.183C198.029 280.324 206.316 283.043 214.437 285.353C223.027 287.798 231.771 290.127 240.203 293.065C248.06 295.804 256.543 299.849 265.064 299.497C272.494 299.19 279.435 293.154 284.794 288.554C290.176 283.933 296.906 277.168 304.645 277.712C308.487 277.982 311.989 279.832 315.732 280.585C319.842 281.41 324.214 281.528 328.393 281.835C333.58 282.217 345.185 280.868 347.104 274.64C347.388 273.716 347.39 271.813 346.168 271.444C345.043 271.104 344.469 272.416 343.403 272.356C341.236 272.234 339.542 268.462 338.351 267.002C333.546 261.107 326.954 256.71 321.561 251.384C315.472 245.372 310.274 238.087 305.686 230.901C307.76 230.363 309.998 231.257 312.005 231.681C314.445 232.197 316.821 232.82 319.225 233.481C321.875 234.209 324.562 234.709 327.25 235.264C329.257 235.677 331.919 235.802 333.73 236.806C335.311 237.683 336.193 238.625 338.156 238.879C340.151 239.138 342.2 238.92 344.205 238.907C349.628 238.87 355.039 238.769 360.436 238.197C379.506 236.175 399.721 228.125 411.188 212.148C414.307 207.803 416.82 202.989 418.408 197.88C419.647 193.892 421.784 188.271 420.705 184.083Z" fill="#252525"/>
<path fill-rule="evenodd" clip-rule="evenodd" d="M241.84 0.00414681C246.852 0.0749421 251.549 1.5581 256.219 3.24421C260.326 4.72678 264.703 6.09844 268.024 9.05768C273.997 14.3809 275.552 23.1949 276.53 30.7358C277.749 40.1456 273.692 48.0405 270.277 56.5536C267.084 64.5157 261.222 70.9658 254.255 75.8807C250.605 78.4553 246.571 80.0093 242.35 81.3721C238.062 82.7561 233.91 84.6098 229.323 84.6027C222.357 84.5927 213.439 81.2907 210.472 74.4412C209.121 71.3227 210.436 70.7628 213.14 72.4578C217.062 74.9167 220.842 77.5704 225.425 78.6612C234.313 80.7774 244.958 77.499 252.752 73.1734C260.542 68.849 265.773 62.3529 269.268 54.264C272.795 46.1037 274.165 38.0625 272.805 29.265C271.652 21.8097 269.36 14.9998 262.628 10.9526C248.096 2.21709 228.516 2.92091 215.593 14.2735C213.821 15.8298 212.069 17.3443 210.243 18.8304C209.081 19.7749 207.714 20.9082 207.883 22.5418C208.027 23.9406 211.016 29.334 207.417 27.6774C204.5 26.3341 202.914 23.7082 199.381 23.3831C195.619 23.0368 191.133 25.9205 190.008 29.55C188.934 33.013 190.848 37.751 193.846 39.7374C195.702 40.9675 197.744 40.7775 199.852 40.7279C200.899 40.7032 203.811 40.3639 204.503 41.4677C205.728 43.4199 201.406 45.4718 200.012 45.9037C196.618 46.9544 192.607 45.7178 190.656 42.6943C188.673 39.6206 187.315 36.0631 187.042 32.4012C186.781 28.8927 187.579 25.3406 189.653 22.4598C191.859 19.3961 196.355 15.9614 200.386 17.0257C202.136 17.4876 203.542 19.2917 205.259 19.6345C206.342 19.8504 205.887 20.005 206.784 19.2032C207.354 18.6947 207.893 17.7561 208.419 17.1531C211.444 13.6865 214.436 9.98687 218.139 7.21228C224.778 2.23715 233.603 -0.112665 241.84 0.00414681ZM223.48 68.7335C224.265 66.8964 225.708 70.1736 226.134 70.7216C226.978 71.8056 228.964 72.649 228.878 74.2479C228.737 76.8875 225.132 76.3978 223.93 75.0209C222.562 73.4532 222.705 70.5478 223.48 68.7335ZM249.091 56.2359C251.036 59.2606 248.666 62.5256 247.128 65.2027C245.658 67.7624 244.293 70.6559 242.581 73.0623C239.74 77.0577 233.559 72.7356 233.375 68.6293C233.235 65.4859 235.466 66.8543 236.898 68.0283C238.372 69.2374 239.07 69.5385 240.615 68.2179C243.723 65.5599 245.12 61.1155 247.269 57.7504C247.695 57.0832 248.467 56.6819 249.091 56.2359ZM254.635 57.2085C255.137 58.6713 254.085 62.5472 257.009 62.1596C258.625 61.9457 258.97 59.6313 259.82 58.6212C262.677 55.2257 261.801 61.648 261.054 63.2553C259.409 66.798 254.803 69.2389 252.519 64.7446C251.669 63.0727 251.673 60.9627 252.105 59.1655C252.34 58.1867 253.71 54.5073 254.635 57.2085ZM228.555 50.2808C228.296 51.9875 226.689 55.3878 228.651 56.6088C230.378 57.6835 233.385 55.3496 234.715 54.3751C236.097 53.3624 239.228 50.4574 239.351 54.0725C239.414 55.9153 237.565 58.1263 236.247 59.1879C233.433 61.452 227.586 63.4828 225.512 59.2214C224.382 56.9 225 53.5951 225.747 51.2559C226.352 49.36 229.18 46.1584 228.555 50.2808ZM265.462 40.9367C266.607 42.2639 269.321 45.2373 267.845 47.1273C266.12 49.3364 263.316 45.2832 262.211 44.1551C261.215 43.1388 259.121 40.2449 260.014 38.7099C261.492 36.1699 264.456 39.7715 265.462 40.9367ZM247.463 35.2221C251.206 37.6557 246.285 39.4081 244.153 39.626C241.572 39.8886 238.273 40.0629 235.903 38.7993C232.544 37.008 233.664 34.3023 236.92 33.6546C240.259 32.991 244.558 33.3331 247.463 35.2221ZM198.802 27.4748C201.555 28.0093 204.699 28.705 205.636 31.6999C206.604 34.7952 205.213 35.8224 202.402 35.1256C199.801 34.4807 195.915 33.8317 194.444 31.2958C192.687 28.266 196.25 26.9797 198.802 27.4748Z" fill="#252525"/>
<path fill-rule="evenodd" clip-rule="evenodd" d="M47.3452 93.9838C46.4215 96.961 41.7461 98.9356 39.4146 100.745C31.2595 107.077 23.2906 113.67 15.9179 120.896C12.0912 124.647 9.19476 129.184 5.87633 133.355C5.06667 134.373 3.63233 136.654 2.04433 136.439C0.302078 136.205 -0.0501548 133.21 0.00539861 131.903C0.195699 127.443 4.2771 123.135 7.18775 120.064C10.4619 116.611 13.9623 113.246 17.5372 110.101C21.4733 106.64 25.7444 103.664 30.097 100.751C34.3711 97.8908 38.4691 94.5861 42.9139 91.9951C45.0078 90.7748 48.4846 90.3104 47.3452 93.9838ZM332.412 65.7095C335.816 65.8166 339.138 66.9309 342.348 67.9653C349.41 70.2413 356.135 73.3984 362.767 76.6981C374.395 82.4821 385.584 89.4804 395.841 97.4374C397.985 99.1002 400.183 100.448 402.514 101.808C404.006 102.679 406.134 103.742 406.709 105.517C408.169 110.03 400.798 105.5 399.752 104.852L398.281 103.942C376.458 90.4434 354.661 77.3284 329.976 69.5874C328.661 69.1749 328.252 68.0044 328.942 66.8439C329.69 65.5864 331.147 65.6699 332.412 65.7095ZM46.352 75.1544C46.1943 76.5285 44.6348 76.8411 43.5831 77.2821C39.6586 78.9273 35.6362 80.3304 31.7224 82.0028C24.4583 85.1067 17.7874 89.6113 10.2054 91.9669C8.47273 92.5062 8.21707 90.761 8.68094 89.5734C9.1976 88.2479 10.7494 87.3173 11.8717 86.5506C15.1092 84.3371 18.781 82.7458 22.3763 81.2083C25.9407 79.6827 29.6107 78.5289 33.2653 77.2502C36.6618 76.0614 40.6041 73.8491 44.2516 73.6857L44.411 73.678C45.5718 73.6194 46.5359 73.5411 46.352 75.1544ZM338.608 54.2799C335.137 53.3056 338.416 51.113 340.478 51.267C342.779 51.4391 345.003 52.5232 347.185 53.1772C353.857 55.1763 360.04 57.3626 366.272 60.4655C367.202 60.9288 371.297 63.125 368.588 64.0975C366.711 64.7713 362.327 61.8804 360.715 61.1869C353.633 58.1392 346.023 56.361 338.608 54.2799Z" fill="#252525"/>
<path fill-rule="evenodd" clip-rule="evenodd" d="M200.262 61.3774C200.696 60.1071 206.061 46.2214 203.961 45.8027C201.737 45.3587 198.763 53.4151 198.118 54.8707C195.735 60.2465 194.324 66.0146 193.218 71.781C192.448 75.796 191.771 79.9092 192.041 84.0141C192.248 87.1687 193.554 87.6463 195.705 89.5794C195.705 79.9974 197.164 70.4466 200.262 61.3774Z" fill="#252525"/>
</svg>
