<svg width="401" height="300" viewBox="0 0 401 300" fill="none" xmlns="http://www.w3.org/2000/svg">
<path fill-rule="evenodd" clip-rule="evenodd" d="M167.877 117.541C163.276 117.835 158.637 117.715 154.031 117.569C153.578 117.554 152.493 117.343 152.216 117.614C151.898 117.927 151.966 119.647 151.913 120.073C151.516 123.3 151.117 126.528 150.72 129.756C150.537 131.238 150.354 132.72 150.172 134.202C150.12 134.623 149.604 136.445 149.85 136.81C150.298 137.475 153.506 137.627 154.352 137.79L164.42 139.73C165.369 139.912 167.789 139.955 168.228 140.704C168.507 141.179 168.337 142.466 168.37 143.005L168.644 147.454C169.002 153.281 169.361 159.108 169.719 164.935C176.845 164.362 183.971 163.79 191.097 163.217C192.831 163.077 194.565 162.938 196.299 162.799C196.711 162.765 197.577 162.852 197.914 162.624C198.65 162.126 199.277 159.994 199.674 159.228C200.686 157.275 201.698 155.322 202.71 153.369C203.686 151.487 204.661 149.605 205.636 147.723C205.886 147.241 206.509 146.438 206.494 145.911C206.476 145.318 205.591 144.255 205.314 143.748C204.503 142.261 203.693 140.774 202.882 139.287C198.869 131.924 194.857 124.561 190.844 117.199C190.64 116.825 190.186 115.469 189.788 115.262C189.015 114.862 186.312 115.667 185.479 115.762C179.626 116.43 173.758 117.166 167.877 117.541Z" fill="#FD4300"/>
<path fill-rule="evenodd" clip-rule="evenodd" d="M100 104.893C101.422 106.581 102.845 108.269 104.268 109.957C108.04 105.301 111.812 100.645 115.584 95.9892C113.693 95.1441 111.802 94.299 109.911 93.4539C108.233 92.704 108.447 93.0605 107.385 94.5474C104.924 97.9962 102.462 101.445 100 104.893Z" fill="#252525"/>
<path fill-rule="evenodd" clip-rule="evenodd" d="M172.745 214.718C172.739 217.171 172.733 219.625 172.727 222.078C180.231 221.708 187.735 221.339 195.238 220.969C194.897 219.94 194.556 218.911 194.215 217.882C193.949 217.078 193.612 214.648 192.965 214.109C192.258 213.52 189.148 214.127 188.199 214.161C183.047 214.347 177.896 214.533 172.745 214.718Z" fill="#252525"/>
<path fill-rule="evenodd" clip-rule="evenodd" d="M154.869 29.0043C146.103 34.5421 137.337 40.0803 128.571 45.6181C130.507 47.8817 132.442 50.1453 134.377 52.4088C134.841 52.951 134.923 53.2942 135.453 53.2414C136.07 53.1802 137.108 52.2118 137.622 51.8915C143.836 48.0236 150.05 44.1557 156.264 40.2882C158.144 39.1178 160.024 37.9474 161.905 36.777C159.559 34.1861 157.214 31.5952 154.869 29.0043Z" fill="#252525"/>
<path fill-rule="evenodd" clip-rule="evenodd" d="M358.539 115.56C358.222 112.986 356.924 110.369 355.975 107.985C354.856 105.175 353.677 102.39 352.47 99.6172C351.705 97.8621 351.428 98.2934 349.43 98.3719C347.094 98.463 344.759 98.5544 342.424 98.6458C344.222 105.174 346.02 111.701 347.818 118.229C348.13 119.359 348.633 123.595 349.613 124.167C349.953 124.366 351.126 124.11 351.511 124.096C352.613 124.055 353.714 124.013 354.816 123.972C356.313 123.916 357.81 123.86 359.307 123.804C359.099 121.053 358.876 118.299 358.539 115.56Z" fill="#252525"/>
<path fill-rule="evenodd" clip-rule="evenodd" d="M210.232 280.845C206.214 279.83 201.843 280.792 197.795 280.82C195.41 280.837 193.03 280.678 190.646 280.801C189.848 280.842 186.195 280.736 186.07 281.216C185.975 281.585 186.701 282.514 186.983 282.667C187.771 283.097 188.326 282.544 189.122 282.34C191.279 281.783 193.801 282.127 196.017 282.021C198.336 281.91 200.654 281.772 202.973 281.666C205.283 281.559 208.23 282.038 210.232 280.845ZM13.3874 72.5873C13.079 71.8811 12.9524 70.76 12.2442 70.318C11.5882 69.9079 10.2135 70.2071 9.4554 70.1966C7.84333 70.1748 4.34324 70.2372 3.2901 71.7047C2.00972 73.4887 5.77641 74.7607 7.03262 74.7267C9.21531 74.6674 11.2012 72.9908 13.3874 72.5873ZM53.5148 50.1947C53.6809 49.7428 53.0978 49.4443 52.6765 49.3004C51.6046 48.9344 50.8995 49.5434 49.9563 50.0015C47.5744 51.1588 44.9848 51.9236 42.4794 52.7598C40.2979 53.4875 38.2742 54.5074 36.1352 55.3268C34.6186 55.9078 31.4179 55.7947 30.5444 57.2606C28.8201 60.1562 33.3371 57.9844 34.133 57.7035C36.417 56.8981 38.848 56.4018 41.0868 55.4814C43.2414 54.5956 45.4385 53.6947 47.5709 52.7356C48.5438 52.2978 49.5112 51.9263 50.5031 51.544C51.4312 51.1865 52.5276 50.2891 53.5148 50.1947ZM118.697 100.382C118.128 100.033 115.795 98.0859 115.012 98.3426C114.4 98.5436 113.715 100.781 113.333 101.369C111.423 104.31 109.363 107.13 107.315 109.975C108.223 110.464 109.132 110.952 110.042 111.441C111.895 107.049 115.469 103.762 118.697 100.382ZM154.065 116.081C156.991 116.088 159.889 115.721 162.811 115.762C166.086 115.808 169.303 115.896 172.574 115.629C175.793 115.365 179 115.353 182.218 115.157C183.231 115.095 188.869 114.665 185.566 113.053C184.455 112.51 183.119 113.186 181.912 113.43C180.514 113.712 179.102 113.818 177.689 113.988C176.342 114.15 174.911 114.598 173.552 114.565C172.127 114.53 171.057 114.276 169.624 114.482C166.654 114.909 163.696 114.67 160.727 114.395C158.68 114.205 154.186 113.054 154.065 116.081ZM233.679 282.664C235.562 281.145 238.54 281.803 240.778 281.319C243.248 280.784 241.303 278.166 240.355 276.772C239.368 275.318 237.881 272.414 236.221 274.565C234.487 276.812 234.282 279.981 233.679 282.664ZM174.409 216.685C174.346 218.05 173.67 219.454 175.09 219.923C176.452 220.372 178.79 219.689 180.202 219.567C182.042 219.408 183.853 219.105 185.687 218.915C186.506 218.831 187.329 218.768 188.153 218.843C188.719 218.895 190.086 219.511 190.593 219.256C191.216 218.943 191.517 217.254 191.009 216.603C190.458 215.897 187.128 216.597 185.937 216.687C182.056 216.982 178.273 216.511 174.409 216.685ZM174.171 212.306C175.958 211.57 178.081 211.915 179.962 211.904C182.176 211.893 184.364 212.014 186.572 212.158C187.549 212.221 190.4 212.945 191.22 212.32C191.651 211.991 191.805 209.174 191.44 208.742C190.844 208.037 188.972 208.886 188.205 209C186.152 209.305 184.056 209.298 181.984 209.278C180.045 209.261 178.099 209.175 176.161 209.17C173.865 209.165 174.176 210.338 174.171 212.306ZM112.706 96.8021C111.976 96.3788 109.58 94.4341 108.685 94.7294C107.924 94.9807 107.115 97.3016 106.66 98.0308C105.794 99.4203 104.879 100.783 103.981 102.152C103.407 103.028 101.877 104.61 102.138 105.794C102.277 106.424 103.552 107.513 104.195 107.322C104.859 107.125 105.953 104.654 106.322 104.167C108.317 101.532 110.823 99.5495 112.706 96.8021ZM345.035 99.6556C347.592 104.667 347.921 110.334 349.306 115.713C349.629 116.964 350.126 118.2 350.399 119.459C350.552 120.161 350.271 121.363 350.664 121.96C351.647 123.455 356.196 122.98 357.177 121.664C357.753 120.891 357.306 120.089 357.06 119.287C356.729 118.203 356.888 117.259 356.696 116.177C356.311 114.009 354.357 111.82 353.43 109.819C352.418 107.633 351.952 105.002 350.502 103.049C349.531 101.743 346.808 99.0461 345.035 99.6556ZM178.312 295.153C181.733 294.703 187.115 293.686 186.935 289.088C186.757 284.518 180.765 283.706 177.43 283.305C176.452 283.188 176.346 283.132 175.353 283.724C174.671 284.131 173.992 284.566 173.356 285.041C172.118 285.966 170.715 287.226 170.451 288.839C169.779 292.937 175.309 294.789 178.312 295.153ZM158.756 35.527C160.308 35.6913 158.243 34.1828 157.852 34.0002C156.664 33.4457 155.345 33.5464 154.084 33.7571C151.033 34.2671 148.332 36.8287 145.725 38.4125C142.964 40.0891 140.239 41.9851 137.36 43.4487C136.044 44.1182 134.956 44.6864 133.862 45.6848C133.305 46.194 133.112 46.5472 132.362 46.5468C131.947 46.5468 131.02 45.5756 130.578 46.1375C129.343 47.7056 135.565 48.2129 136.214 48.1068C139.458 47.5761 142.272 46.3454 145.055 44.6762C147.897 42.9726 150.915 41.5894 153.771 39.9311C155.005 39.2139 156.062 38.263 157.188 37.4113C157.349 37.2891 157.641 36.8779 157.804 36.7218C158.066 36.7987 158.285 36.7308 158.461 36.5181C158.553 36.1857 158.651 35.8552 158.756 35.527ZM221.507 280.888C218.352 282.008 213.194 282.88 211.714 286.581C210.037 290.773 217.574 293.762 220.532 293.99C223.639 294.229 229.161 292.971 229.594 289.107C229.843 286.883 228.08 285.464 226.432 284.355C224.748 283.221 222.345 282.978 221.507 280.888ZM19.6244 47.3841C17.3941 47.6401 15.8783 47.8602 14.1018 49.3074C12.6277 50.5088 11.4132 51.7223 10.8126 53.5753C9.42383 57.858 12.8561 61.5352 17.2651 61.0365C17.7512 60.9815 18.2259 60.8016 18.7193 60.8512C19.1726 60.8968 19.4895 61.2222 19.8727 61.2874C20.7757 61.4407 20.9507 61.2823 21.6917 60.5796C23.2032 59.1456 24.7202 57.57 25.5574 55.6351C27.5736 50.9751 24.5417 47.4676 19.6244 47.3841ZM70.3293 38.4585C70.546 33.6354 63.204 32.8429 59.8185 33.2097C55.9747 33.6264 49.6683 37.5291 51.1322 42.3171C52.4208 46.5316 59.6899 46.2104 62.8318 45.3536C63.5037 45.1706 64.5483 44.7726 65.2097 44.9072C66.2033 45.1085 66.2516 45.9264 67.1878 45.1862C67.7764 44.7207 68.3076 43.3656 68.7231 42.6979C69.551 41.3678 69.9789 39.981 70.3293 38.4585ZM173.524 236.527C173.423 237.56 173.028 238.888 174.14 239.379C174.827 239.683 176.733 239.35 177.423 239.375C180.304 239.477 183.26 239.248 186.122 239.477C186.969 239.545 189.499 240.404 190.252 239.828C190.989 239.265 190.414 237.504 190.365 236.715C190.164 233.498 190.595 230.371 190.734 227.172C190.771 226.313 191.125 224.225 190.467 223.589C189.665 222.814 187.885 223.262 186.929 223.359C183.947 223.661 180.879 224.103 177.882 224.11C177.059 224.112 175.237 223.528 174.523 223.836C173.427 224.308 173.685 225.958 173.624 227.011C173.441 230.187 173.32 233.349 173.524 236.527ZM106.481 92.5186C102.571 89.6222 98.5187 86.8757 94.609 84.0593C93.2167 83.0569 92.1819 81.6253 90.8773 80.6467C90.0592 80.0321 89.8098 79.7649 88.6915 80.358C87.3991 81.0435 86.1978 82.1204 85.0055 82.9711C84.0042 83.6851 82.9982 84.3933 81.9958 85.1046C81.0666 85.7636 80.7555 85.9135 81.4138 87.008C82.5722 88.9336 84.9779 90.6715 86.5506 92.2552C90.4318 96.1638 94.2231 100.207 98.5838 103.584C100.083 99.2104 103.184 95.6542 106.481 92.5186ZM150.31 25.0118C143.523 22.33 143.008 13.2495 140.634 7.46141C139.899 11.4238 141.849 17.8635 138.557 20.9753C136.532 22.8888 135.359 20.1882 134.272 18.7184C132.616 16.4803 130.839 14.3405 129.258 12.0454C129.744 14.8142 131.134 17.9216 130.874 20.7372C130.67 22.9477 129.257 25.9756 127.201 23.469C125.789 21.7474 123.981 20.1371 122.334 18.6103C120.354 16.7749 118.096 15.5891 115.944 14.0236C116.777 18.1643 118.366 21.8399 120.707 25.3442C121.908 27.1422 123.224 28.8692 124.357 30.7117C125.284 32.2178 125.722 34.0911 126.95 35.3706C128.097 36.5657 129.784 37.5201 131.158 38.4382C133.114 39.7454 133.583 39.3735 135.382 38.1312C138.863 35.7268 142.644 33.8016 146.148 31.4277C145.499 30.57 144.463 29.7229 144.497 28.5555C144.525 27.6105 145.248 26.7501 146.216 26.8632C146.975 26.9518 147.325 27.7466 148.17 27.4786C148.883 27.2515 149.859 25.5475 150.31 25.0118ZM384.029 97.3254C380.883 97.6965 377.947 98.8175 374.723 98.613C373.418 98.5303 372.444 98.771 371.872 97.4616C371.414 96.4155 371.882 94.8258 370.445 94.541C369.379 94.3303 368.061 95.3198 367.273 95.8797C365.858 96.886 364.604 97.7792 363.002 98.4901C360.161 99.7504 357.278 100.846 354.173 100.983C354.924 103.264 355.715 105.549 356.755 107.717C357.752 109.795 358.733 111.563 359.03 113.878C359.157 114.869 359.157 115.948 360.129 116.384C361.083 116.811 362.784 116.459 363.817 116.477C366.181 116.52 368.548 116.575 370.913 116.581C372.715 116.584 374.508 117.014 376.263 116.989C378.445 116.957 380.913 116.009 383.041 115.559C387.073 114.706 392.715 114.177 395.928 111.427C392.954 110.959 389.925 111.277 387.003 111.918C385.666 112.212 382.597 113.74 381.701 112.21C380.633 110.387 382.723 107.87 384.198 107.023C385.862 106.067 388.345 106.17 389.518 104.447C387.303 104.634 384.969 104.716 382.827 105.367C381.186 105.866 379.069 107.288 378.419 104.826C377.367 100.836 381.285 98.9439 384.029 97.3254ZM149.294 131.483C149.85 126.201 150.87 120.864 150.96 115.547C150.999 113.25 148.403 113.661 146.586 113.008C143.946 112.059 141.357 110.936 138.765 109.866C136.18 108.799 133.582 107.77 130.988 106.725C128.633 105.777 126.374 104.343 124 103.501C122.708 103.042 122.607 103.49 121.857 104.675C121.128 105.829 120.362 106.958 119.568 108.068C117.902 110.401 116.119 112.647 114.296 114.858C119.781 118.16 125.506 121.212 131.166 124.205C136.942 127.259 143.225 129.108 149.294 131.483ZM266.462 111.448C269.363 111.455 272.188 111.037 275.077 110.948C277.933 110.861 280.694 110.986 283.526 111.06C286.246 111.131 288.913 111.683 291.625 111.812C292.285 111.843 292.971 111.84 293.627 111.913C294.286 111.987 294.677 112.232 295.29 112.336C296.794 112.591 298.259 112.23 299.777 112.311C305.374 112.61 310.889 113.76 316.488 114.051C322.243 114.351 327.861 114.798 333.59 115.488C336.618 115.853 339.651 116.067 342.693 116.28C343.317 116.324 344.652 116.717 344.994 116.005C345.409 115.141 344.001 112.189 343.742 111.274C343.405 110.085 343.128 108.869 342.676 107.716C342.411 107.042 341.853 104.842 341.315 104.414C340.566 103.818 339.447 104.391 338.572 104.517C336.8 104.773 334.999 104.926 333.218 105.101C330.58 105.362 327.941 105.985 325.305 106.064C322.33 106.153 319.37 106.026 316.398 105.915C310.447 105.692 304.351 105.807 298.43 105.199C291.588 104.497 284.714 104.211 277.856 103.695C276.23 103.573 274.6 103.542 272.973 103.444C271.809 103.375 269.433 102.557 268.345 102.936C267.24 103.321 267.45 104.629 267.324 105.646C267.086 107.585 266.777 109.519 266.462 111.448ZM195.217 165.27C191.088 165.905 187.038 166.154 182.864 166.274C181.023 166.326 179.194 166.415 177.36 166.599C175.827 166.753 174.968 166.82 174.911 168.499C174.662 175.861 174.261 183.144 174.035 190.509C173.907 194.667 174.054 198.83 174.04 202.99C174.034 204.569 173.711 205.707 175.446 205.891C177.554 206.115 179.766 205.821 181.887 205.841C183.839 205.86 185.792 205.908 187.744 205.95C188.997 205.977 191.321 206.601 191.742 205.083C191.876 204.598 191.635 203.746 191.647 203.209C191.671 202.21 191.794 201.201 191.854 200.202C191.992 197.911 192.093 195.618 192.232 193.327C192.801 183.941 194.332 174.632 195.217 165.27ZM147.943 48.4193C150.666 50.5088 153.764 51.9462 156.675 53.7735C158.071 54.6499 159.418 55.5894 160.785 56.508C162.192 57.453 163.826 58.0254 165.155 59.075C167.727 61.1067 170.91 62.4014 173.736 64.1643C176.607 65.9556 179.469 67.7501 182.405 69.4334C183.705 70.1783 185.126 70.6258 186.458 71.2977C188.056 72.1035 189.505 73.1589 191.124 73.9288C194.59 75.5773 198.052 77.2278 201.504 78.9084C208.279 82.2067 215.224 85.2541 222.141 88.2429C223.615 88.8797 225.165 89.1595 226.719 89.5356C227.452 89.7132 228.383 89.8052 229.044 90.158C229.249 90.268 229.467 90.2836 229.631 90.4682C229.943 90.8221 229.678 91.3176 229.87 91.581C230.947 93.0555 233.938 88.9121 234.634 87.9081C235.708 86.3567 235.272 86.1055 233.614 85.462C231.94 84.8128 230.252 84.2005 228.596 83.5068C225.547 82.2289 222.429 80.7833 219.516 79.2178C216.487 77.5892 213.331 76.2446 210.334 74.5461C206.972 72.6412 203.636 70.6972 200.235 68.8598C194.498 65.7598 189.228 61.8512 183.655 58.4862C180.577 56.6285 177.684 54.4177 174.706 52.3723C171.8 50.3761 169.046 48.1473 166.079 46.2822C164.446 45.2564 162.749 44.4027 161.223 43.2177C160.083 42.3323 158.946 41.424 157.516 42.1673C155.972 42.9703 154.514 44.3204 153.014 45.2529C151.322 46.3056 149.633 47.3634 147.943 48.4193ZM274.366 82.9707C273.482 82.5079 270.236 81.2729 271.76 79.7602C272.845 78.6836 275.408 80.1141 276.459 80.4703C276.437 78.9818 276.439 77.9552 275.96 76.536C275.479 75.1099 275.613 74.0314 276.786 72.9506C277.322 72.4562 279.268 72.0297 279.494 71.3812C279.844 70.3738 278.099 70.6933 277.503 70.5525C274.355 69.808 274.545 66.5074 274.467 63.9805C274.374 61.0096 273.679 58.153 271.383 56.2219C270.346 55.3499 269.972 55.3483 268.694 55.9211C268.224 56.1322 267.8 56.4717 267.28 56.5653C266.545 56.6976 266.053 56.2188 265.399 56.2512C264.386 56.3012 263.352 57.977 262.366 58.5124C261.089 59.2061 259.832 58.9989 258.57 59.4953C257.447 59.9366 256.362 61.1337 255.315 61.7705C253.89 62.6375 254.214 63.4885 254.305 65.192C254.381 66.6135 254.336 67.5461 252.938 68.0732C252.488 68.2433 251.695 68.1668 251.311 68.4404C250.745 68.8442 251.052 69.1478 250.869 69.8232C250.407 71.5322 249.426 70.4893 248.175 70.261C246.652 69.9828 244.973 71.0582 245.769 72.6934C246.054 73.2787 246.665 73.8117 247.277 73.9939C248.001 74.2089 248.904 73.6166 249.572 73.8839C251.274 74.5664 249.914 76.1825 249.995 77.284C251.028 76.7233 251.379 75.1161 252.447 76.8977C253.219 78.1854 252.912 80.1414 252.72 81.5473C252.276 84.7999 251.279 88.7845 249.163 91.3937C248.858 91.7695 248.403 92.4753 247.83 92.3864C247.354 92.3126 247.297 91.6945 246.885 91.5365C246.001 91.1963 244.648 91.7 244.31 92.5182C243.738 93.9011 243.797 95.9297 243.752 97.3933C243.7 99.0777 243.502 100.983 243.911 102.636C244.609 105.458 247.234 106.441 249.788 107.064C251.211 107.411 252.771 107.816 254.212 107.328C255.783 106.796 256.864 105.368 257.972 104.216C258.805 103.35 260.421 102.364 260.529 101.111C260.58 100.525 260.163 99.7161 260.068 99.1156C259.917 98.1623 259.874 97.199 259.9 96.2344C259.946 94.4626 260.442 92.6614 260.291 90.8896C260.135 89.0771 258.788 88.9468 258.054 87.5507C257.617 86.7177 257.514 85.4207 258.578 85.1374C259.195 84.9727 260.353 85.4417 261.022 85.4893C262.043 85.5619 263.078 85.5779 264.101 85.5881C265.988 85.6072 267.41 85.5104 269.118 84.6887C270.876 83.8435 272.446 83.3164 274.366 82.9707ZM230.616 281.542C230.687 279.997 230.902 278.452 231.38 276.977C231.787 275.724 232.66 274.626 232.807 273.331C233.113 270.628 232.217 268.088 229.612 267.113C227.085 266.167 224.348 266.182 221.71 266.36C220.178 266.463 218.88 265.938 217.377 266.008C215.795 266.081 214.399 265.864 212.827 265.697C209.909 265.387 207.422 264.102 204.588 263.559C203.201 263.292 202.721 263.884 201.873 264.861C200.938 265.936 199.885 266.84 198.7 267.629C196.879 268.843 193.621 271.073 193.448 267.31C193.302 264.152 196.465 261.812 198.418 259.767C196.439 258.926 196.609 255.803 194.31 257.06C193.312 257.605 192.524 258.412 191.602 259.066C190.827 259.616 189.047 261.149 188.026 261.03C186.587 260.862 186.433 258.815 186.648 257.68C187.04 255.617 189.196 254.43 190.726 253.219C191.65 252.487 193.033 251.911 193.819 251.051C194.654 250.138 194.468 249.114 194.44 247.966C194.428 247.443 194.82 245.475 194.607 245.024C194.279 244.328 193.144 244.513 192.335 244.441C190.833 244.307 189.343 244.043 187.848 243.902C186.675 243.791 185.549 244.055 184.376 244.098C181.412 244.207 178.415 244.053 175.447 244.044C174.909 244.042 172.653 243.657 172.278 244.123C171.955 244.524 172.263 246.385 172.261 246.866C172.251 249.852 172.261 252.835 172.35 255.82C172.525 261.709 172.329 267.757 171.119 273.546C170.9 274.595 170.211 275.758 171.273 276.274C172.091 276.671 174.274 276.054 175.166 275.996C178.058 275.806 180.981 275.993 183.857 275.783C188.864 275.417 194.044 275.753 199.151 275.871C205.945 276.03 212.702 276.765 219.494 276.939C222.447 277.014 225.45 276.475 228.364 276.564C229.509 276.6 229.834 276.889 229.898 278.117C229.975 279.576 229.341 280.359 230.616 281.542ZM88.041 73.2588C85.4312 68.8501 82.971 64.3543 80.3638 59.9444C79.186 57.9528 77.8635 56.0596 76.5488 54.1578C75.8753 53.1835 75.1308 52.1991 74.616 51.1261C74.1439 50.1436 74.0036 49.014 73.4482 48.0709C72.3974 50.3941 70.1418 51.6684 67.7814 52.4999C65.9472 53.1461 64.1578 54.0712 62.244 54.47C57.2391 55.5141 52.2879 57.7636 47.3764 59.3946C36.9475 62.8567 25.8002 64.7581 15.7595 69.2566C19.1855 72.6482 18.121 79.8792 23.8377 80.9729C26.112 81.4083 28.4872 80.7083 30.6641 80.1086C33.4127 79.3513 36.1633 78.5998 38.9146 77.8506C41.8998 77.037 44.9151 76.4057 47.9248 75.6956C49.4363 75.3389 50.9576 75.0916 52.4722 74.77C53.7339 74.5024 53.7491 74.2402 54.4101 73.0516C55.528 71.0425 57.6019 68.9874 59.3559 71.638C60.0699 72.7176 59.9187 74.0728 60.5447 75.1427C61.0794 76.0565 62.2226 76.5306 63.0263 77.1482C63.584 75.5734 64.2501 73.4407 65.4826 72.2311C66.8273 70.9114 68.163 71.9732 68.6471 73.5242C69.2286 75.3881 68.3715 77.6563 67.9966 79.4902C67.8134 80.3864 67.4657 81.4165 67.6762 82.3358C67.956 83.5575 69.0205 84.817 69.6546 85.8772C75.5822 81.4591 81.6376 76.9473 88.041 73.2588ZM203.923 147.485C202.188 145.132 200.353 143.047 199.05 140.411C197.657 137.594 196.531 134.56 195.046 131.815C193.571 129.088 192.214 126.31 190.867 123.511C189.927 121.557 188.858 116.867 186.166 116.984C184.822 117.043 183.45 117.527 182.098 117.66C180.513 117.816 178.921 117.807 177.338 118.001C173.865 118.426 170.484 119.185 166.978 119.391C163.966 119.568 160.915 119.658 157.899 119.527C157.077 119.492 154.938 118.851 154.176 119.218C153.288 119.646 153.585 121.314 153.51 122.168C153.227 125.379 152.793 128.592 152.305 131.777C152.221 132.32 151.382 135.035 151.757 135.493C152.337 136.201 154.827 135.728 155.638 135.791C158.841 136.037 161.989 136.769 165.179 137.123C166.798 137.302 168.418 137.344 170.046 137.35C171.627 137.355 173.933 136.919 175.433 137.46C176.397 137.809 176.944 138.628 176.633 139.672C176.29 140.823 175.173 141.08 174.139 141.295C173.38 141.453 171.178 141.365 170.7 142.063C170.183 142.818 171.089 144.241 171.345 144.958C171.834 146.331 171.556 146.921 171.52 148.264C171.482 149.678 172.3 150.922 172.191 152.351C172.085 153.748 172.026 154.864 172.162 156.289C172.282 157.54 172.199 158.911 172.375 160.127C172.781 162.941 178.865 161.239 180.753 161.196C184.656 161.109 188.574 161.74 192.461 161.553C193.605 161.498 196.257 161.706 197.064 160.735C197.882 159.751 198.011 157.506 198.539 156.289C199.915 153.108 201.967 150.32 203.923 147.485ZM238.672 84.8588C238.388 88.1235 238.23 90.6379 236.275 93.3852C234.187 96.3187 231.787 96.0557 228.491 96.3784C225.533 96.6679 223.212 97.6453 220.836 99.3942C218.042 101.451 215.028 103.159 212.05 104.929C206.385 108.297 199.629 109.228 193.196 110.229C191.579 110.481 188.593 111.205 190.496 113.122C192.542 115.183 193.688 118.224 195.063 120.802C198.214 126.714 200.63 133.064 204.225 138.727C205.677 141.014 207.415 143.774 209.644 145.389C211.76 146.922 216.008 144.075 218.161 143.134C220.961 141.91 223.899 140.981 226.536 139.471C228.996 138.063 231.5 136.848 234.086 135.688C236.625 134.549 239.084 133.416 241.743 132.585C244.872 131.606 248.179 131.259 251.357 130.407C254.618 129.534 257.192 128.607 259.827 126.446C261.052 125.442 262.544 124.438 263.037 122.851C263.542 121.227 263.17 119.157 263.094 117.492C263.013 115.752 262.743 113.97 262.778 112.229C262.814 110.474 263.674 109.097 264.194 107.467C265.014 104.894 265.947 100.229 263.35 98.4963C263.167 101.245 262.198 103.712 261.29 106.29C260.415 108.774 258.98 110.293 256.833 111.741C256.016 112.292 255.133 113.059 254.166 113.309C253.14 113.574 251.705 113.438 250.639 113.45C248.242 113.475 245.644 112.847 243.797 111.231C240.059 107.958 239.243 102.094 239.604 97.4421C239.812 94.7665 240.253 92.0711 241.479 89.657C241.901 88.827 242.74 87.9413 242.271 86.9693C241.782 85.9517 239.588 85.3356 238.672 84.8588ZM164.918 141.866C160.508 141.29 155.917 140.822 151.634 139.578C150.076 139.125 148.196 138.551 148.18 136.683C148.174 136.109 148.604 135.073 148.357 134.534C148.103 133.981 146.525 133.944 145.794 133.798C137.3 132.114 129.41 128.821 121.828 124.698C114.159 120.527 107.075 115.606 99.8384 110.746C92.7782 106.004 86.9123 100.214 81.0436 94.1239C80.2286 93.2779 79.3921 92.4535 78.5502 91.6341C77.936 91.0359 77.0828 89.8177 76.2752 89.4931C74.8237 88.9094 72.7946 91.1202 71.5111 91.7784C69.8417 92.6345 67.8504 92.7641 66.7485 90.9598C66.0209 89.7678 66.6975 89.5501 66.8016 88.4286C66.8873 87.5066 66.2563 86.9838 65.7012 86.3419C65.2733 87.3525 64.7038 89.2012 63.2469 88.9714C61.9373 88.7654 61.7935 86.9604 61.7003 85.931C61.5916 84.7312 61.9653 83.2071 61.1535 82.2359C60.5146 81.4719 59.2666 80.9136 58.4489 81.6058C56.8041 82.998 57.8709 87.1445 55.5494 88.1781C52.2762 89.6351 52.5954 82.9867 52.526 81.6577C45.198 82.4681 38.3105 85.6688 30.9743 86.7165C27.9887 87.143 24.5401 87.0029 21.9345 85.2985C19.5386 83.7319 17.0504 80.2846 16.0261 77.6391C13.5686 79.4605 10.9993 80.857 7.84372 80.0446C4.63595 79.2182 1.81406 77.4385 0.635405 74.2144C-0.547922 70.9782 -0.205708 68.5137 2.74832 66.6872C3.95698 65.9396 4.91269 65.5736 6.24296 65.2127C7.71588 64.8132 9.58169 64.5236 10.9724 63.8907C9.53842 61.7958 7.90725 59.7434 7.25557 57.24C6.52047 54.4165 6.88724 51.24 8.0273 48.5703C10.088 43.7452 15.8807 40.5168 21.0985 41.6195C25.6521 42.5817 28.8743 46.5238 30.1675 50.8354C30.7553 52.7957 30.2392 54.008 32.6371 52.9475C35.36 51.7429 37.743 49.9707 40.5555 48.9078C42.9955 47.9854 45.6564 47.2105 47.917 45.8862C49.0871 45.201 49.0322 45.1421 48.5551 43.8845C47.9626 42.3226 47.5966 40.8683 47.7288 39.171C48.1065 34.3112 52.1288 30.8662 56.4334 29.2672C61.3133 27.4544 67.3644 28.1704 71.0211 32.0879C72.7977 33.9912 74.0103 36.4927 74.1654 39.1117C74.2348 40.2725 73.5425 42.0374 73.9284 43.1076C74.2644 44.039 75.8542 44.7531 76.4677 45.6435C77.4406 47.0568 77.8915 48.7482 78.857 50.1857C79.6942 51.4304 80.5423 52.665 81.3468 53.9319C83.3011 57.0078 85.133 60.1594 86.7302 63.4366C87.4611 64.9357 88.147 66.4562 88.8167 67.9838C89.2766 69.0315 89.6558 70.9454 90.4829 71.78C91.3182 72.6236 92.5635 72.3536 93.2806 73.4215C94.1841 74.7661 93.3259 75.955 92.6098 77.1264C98.0541 78.7211 101.397 83.3308 105.754 86.7091C110.152 90.1186 114.979 93.0715 119.707 95.9952C124.628 99.0387 129.459 101.939 134.817 104.151C139.81 106.212 144.635 108.641 149.614 110.728C150.312 111.021 150.856 111.409 151.546 110.954C152.184 110.534 152.313 109.178 152.98 108.628C154.67 107.236 158.647 108.009 160.659 107.977C163.56 107.932 166.504 107.768 169.403 107.918C170.385 107.968 171.333 108.36 172.295 108.23C173.769 108.032 175.145 107.731 176.679 107.669C177.956 107.617 179.23 107.522 180.509 107.568C181.115 107.59 182.14 107.85 182.684 107.437C183.362 106.923 182.954 105.69 183.417 104.942C183.717 104.457 184.311 104.324 184.602 103.942C184.565 103.991 185.065 103.128 184.927 103.237C185.82 102.532 188.32 102.319 189.376 102.57C189.681 102.643 189.731 103.156 190.115 103.157C190.497 103.158 190.527 102.772 190.797 102.68C191.077 102.583 191.153 102.195 191.528 102.136C191.942 102.07 192.473 102.537 192.922 102.563C193.428 102.592 193.91 102.257 194.381 102.126C195.006 101.953 195.488 102.08 196.009 102.018C196.959 101.905 197.98 101.799 198.967 101.683C200.402 101.515 201.799 101.067 203.199 100.727C203.813 100.577 204.426 100.403 205.059 100.355C205.79 100.299 206.741 100.644 207.431 100.481C208.021 100.342 207.54 100.131 208.052 99.9541C208.604 99.7625 209.202 99.7098 209.762 99.5159C211.05 99.0703 212.238 98.3297 213.395 97.6239C216.089 95.9792 218.499 93.9299 221.163 92.2412C220.555 91.3562 218.291 91.2064 217.333 90.8935C216.015 90.4627 214.722 89.9582 213.432 89.4494C210.501 88.2921 207.592 87.079 204.683 85.8671C199.166 83.5684 193.617 81.3506 188.344 78.5303C183.39 75.8813 178.1 73.8168 173.188 71.073C170.689 69.6773 168.188 68.2078 165.758 66.6939C163.495 65.2837 161.06 64.3219 158.716 63.0323C154.136 60.5129 149.93 57.3785 145.332 54.9125C144.246 54.3303 143.041 53.0973 141.869 52.7805C140.862 52.5081 139.84 53.07 138.93 53.4641C137.966 53.8816 137.061 54.5668 135.979 54.5902C134.788 54.6159 133.424 53.9741 132.3 53.585C130.211 52.8624 128.396 50.8592 127.636 48.7732C127.265 47.7533 127.094 46.6201 126.956 45.5471C126.794 44.2755 127.223 42.7803 126.913 41.5707C126.324 39.2701 123.602 37.11 122.08 35.4599C120.19 33.411 118.552 31.1179 117.06 28.7674C113.725 23.5127 111.411 17.2798 113.27 11.0949C113.553 10.1522 114.058 8.59452 114.893 7.96709C116.051 7.09541 116.547 8.11264 117.548 8.61793C118.792 9.24575 119.973 9.61136 121.139 10.4643C122.553 11.4979 123.716 12.7586 125.019 13.9148C125.026 11.2451 124.61 8.90472 125.186 6.23114C125.482 4.85884 126.144 2.0042 127.89 1.75956C129.701 1.50554 130.999 4.78782 131.787 5.98532C133.253 8.21057 134.89 10.2985 136.521 12.4028C136.732 9.13806 136.299 1.37678 140.404 0.0926615C144.081 -1.0584 145.982 8.85283 146.873 11.0707C147.704 13.1398 148.87 15.1841 150.133 17.0222C151.455 18.9482 152.897 17.9669 154.947 18.0574C156.841 18.1413 157.693 19.452 157.672 21.31C157.646 23.6609 155.778 25.3782 154.485 27.152C157.282 28.5044 160.905 30.2634 162.575 33.0481C162.946 33.665 163.201 34.3732 163.224 35.1013C163.246 35.8212 162.588 37.1393 162.929 37.8046C163.179 38.2911 164.023 38.4675 164.472 38.7324C165.4 39.2807 166.225 39.9896 167.143 40.5577C173.159 44.2817 178.815 48.7315 184.618 52.6634C189.858 56.2134 195.409 59.3759 200.709 62.9239C207.448 67.4352 214.535 71.2735 221.749 74.9823C223.413 75.838 224.956 76.7881 226.553 77.746C228.192 78.7285 230.147 79.3922 231.897 80.1878C233.123 80.745 234.459 81.8056 235.746 82.1528C237.277 82.566 237.921 80.9421 239.705 81.3631C241.244 81.7264 242.922 81.8871 243.846 83.2723C244.656 84.4869 244.581 86.345 245.886 87.1301C247.399 88.04 247.823 87.0645 248.173 85.8007C248.57 84.3629 249.694 82.7186 248.315 81.6834C247.013 80.7056 245.167 80.5979 243.643 80.2362C242.871 80.0532 241.846 79.3848 241.111 79.3243C240.192 79.2486 239.977 80.1047 239.196 80.1059C238.781 80.1063 238.416 79.7048 238.02 79.5772C237.931 79.5483 237.697 79.8757 237.589 79.8456C237.203 79.7372 237.171 79.608 236.794 79.4531C235.45 78.901 233.672 78.0305 234.078 76.3523C234.295 75.4521 235.77 74.0041 234.741 73.1785C233.773 72.402 232.475 74.0209 231.942 72.4008C231.563 71.2501 232.486 70.9415 231.312 69.9945C230.449 69.298 229.654 69.1088 230.131 67.8317C230.439 67.0091 232.037 65.7586 231.579 64.7667C230.93 63.3632 228.461 64.7823 228.699 62.2465C228.869 60.4301 231.153 59.1191 231.168 57.332C231.179 56.053 229.966 56.062 229.651 55.2309C229.339 54.4095 229.624 54.4126 230.079 53.8359C230.416 53.4075 230.636 53.2651 230.888 52.7602C231.195 52.1464 231.724 51.3516 231.525 50.6375C231.346 49.9957 230.595 49.6141 230.406 48.9031C229.694 46.2245 235.352 40.1391 236.793 43.8268C237.863 42.5887 239.266 39.9967 241.158 40.2042C242.301 40.3299 241.812 40.6561 242.21 41.3167C242.498 41.7962 243.297 42.0397 243.523 42.5583C243.971 41.1661 243.496 38.5861 244.742 37.5646C245.956 36.5688 246.719 38.3208 247.236 39.2955C247.568 38.3758 247.782 36.65 248.928 36.3199C250.155 35.9675 250.92 37.5022 251.518 38.2837C252.161 37.3691 253.368 34.6737 254.758 35.0022C255.801 35.2484 256.317 36.9891 256.804 37.7925C257.945 37.0433 259.742 35.2391 261.219 35.4299C262.657 35.6152 262.531 36.9637 264.213 36.412C265.433 36.0116 266.7 34.9484 267.995 34.8688C269.36 34.7849 270.082 35.7416 271.598 35.5095C273.207 35.2633 273.453 34.8887 274.502 36.2024C275.02 36.8509 274.882 37.1354 275.781 37.2712C276.541 37.3863 277.206 36.8841 278.003 37.2006C278.592 37.4343 279.004 37.9802 279.25 38.5412C279.542 39.2038 279.204 40.3521 279.495 40.8734C280.055 41.8762 282.171 40.9913 283.12 41.6877C284.402 42.6277 283.195 44.0546 283.877 45.0961C284.425 45.9322 285.968 45.7192 286.582 46.8476C287.139 47.8695 287.008 49.2204 286.362 50.1674C286.091 50.5654 285.329 50.8951 285.15 51.2552C284.782 51.9981 285.091 51.9115 285.305 52.6708C285.715 54.1231 285.387 54.6709 284.268 55.6644C283.621 56.2391 283.485 56.0741 283.442 56.9473C283.409 57.6212 283.982 58.2459 283.876 59.0001C283.703 60.2253 282.498 60.9951 282.135 62.1997C281.667 63.7499 280.391 64.5982 279.428 65.8741C280.566 66.5604 282.061 67.1293 282.613 68.4177C283.216 69.8232 283.104 71.8237 282.677 73.2495C282.267 74.6159 281.39 75.488 280.547 76.5723C279.52 77.8927 279.608 78.9396 279.544 80.5511C279.41 83.9578 277.948 87.0517 274.607 88.1337C273.282 88.5629 272.085 89.1942 270.74 89.5945C269.095 90.0842 267.892 90.124 266.186 90.0273C265.119 89.9672 263.87 89.737 263.499 90.867C263.313 91.4319 263.381 93.6311 263.635 94.1328C264.068 94.992 265.296 94.8781 266.036 95.621C267.371 96.9609 266.993 98.103 269.246 98.1342C276.543 98.2361 283.817 97.6727 291.114 98.201C294.712 98.4616 298.234 99.0836 301.846 99.2666C305.822 99.4675 309.809 99.5346 313.782 99.7762C317.532 100.004 321.202 100.495 324.972 100.301C328.493 100.12 331.875 99.878 335.382 99.489C336.582 99.3559 338.44 99.5471 339.288 98.6298C339.758 98.1214 339.866 97.2493 340.335 96.6894C340.768 96.1724 341.355 95.7982 341.887 95.3947C343.176 94.4165 344.391 93.5366 346.091 93.569C347.581 93.5975 348.769 94.6736 349.983 95.465C351.392 96.3839 351.976 96.806 353.647 96.4498C355.313 96.0951 356.84 95.4372 358.465 94.9534C361.893 93.9331 365.105 92.4652 368.228 90.7245C369.766 89.8669 370.85 89.2906 372.621 89.8068C374.437 90.3359 374.953 90.8568 374.975 92.7426C374.981 93.3411 374.753 94.4052 375.441 94.7509C375.941 95.0018 377.04 94.3018 377.464 94.1176C379.337 93.3049 381.177 92.4581 383.135 91.8647C384.922 91.3227 386.732 90.842 388.527 90.3246C390.028 89.8915 392.03 89.2644 393.526 90.0706C397.304 92.1066 391.744 97.2801 390.3 99.0013C392.101 98.5697 395.966 98.8159 396.913 100.749C398.034 103.036 395.787 105.304 394.518 106.967C396.295 107.775 399.88 107.08 400.381 109.627C400.801 111.764 398.577 113.918 397.128 115.168C393.376 118.405 387.558 120.672 382.603 120.715C381.346 120.725 380.121 120.48 378.87 120.421C377.955 120.377 377.129 120.694 376.24 120.695C374.987 120.697 373.876 120.45 372.584 120.627C371.094 120.831 369.616 121.081 368.12 121.25C366.732 121.406 365.343 121.548 363.95 121.656C363.032 121.729 361.647 121.526 360.794 121.834C359.69 122.233 360.012 122.632 359.922 123.693C359.812 124.997 359.152 126.175 358.191 127.045C354.702 130.203 348.759 129.445 347.006 124.809C346.579 123.681 347.146 123.092 346.985 122.076C346.823 121.053 345.871 121.088 344.94 121.019C342.104 120.809 339.232 120.789 336.385 120.593C330.873 120.213 325.195 119.44 319.685 119.571C313.935 119.708 308.149 119.362 302.405 119.05C299.725 118.904 296.948 117.965 294.31 118.167C291.508 118.382 288.532 117.779 285.715 117.486C279.419 116.831 272.39 116.642 266.571 114.026C267.031 120.333 267.796 126.737 262.677 131.442C260.532 133.413 257.838 135.671 255.025 136.511C251.401 137.595 247.926 138.493 244.237 139.297C237.378 140.791 230.563 144.369 224.375 147.582C221.464 149.094 218.048 149.683 214.893 150.53C213.39 150.934 211.697 151.466 210.121 151.41C208.567 151.355 207.489 150.299 206.118 149.669C204.806 152.759 203.035 155.589 201.715 158.639C201.06 160.152 200.544 161.761 199.782 163.224C199.2 164.34 198.259 164.94 198.17 166.233C197.954 169.373 198.528 172.649 198.374 175.825C198.206 179.288 197.668 182.804 197.351 186.271C196.665 193.765 196.985 201.311 196.428 208.815C195.919 215.67 196.237 222.473 195.477 229.334C195.266 231.239 195.032 233.141 194.879 235.052C194.779 236.306 194.085 239.192 194.739 240.316C195.025 240.807 195.711 240.86 196.17 241.106C196.887 241.491 197.539 242.078 198.074 242.69C199.204 243.982 199.475 245.519 199.732 247.165C201.195 246.378 207.329 242.339 206.41 246.762C206.126 248.134 204.881 248.874 203.9 249.749C203.18 250.39 202.493 251.071 201.727 251.659C201.211 252.055 200.116 252.547 199.867 253.195C199.422 254.352 201.721 256.005 202.807 255.992C204.331 255.975 206.234 253.688 207.525 252.958C210.954 251.022 210.644 255.203 209.352 257.021C208.376 258.392 209.201 258.287 210.542 258.565C212.639 259 214.575 259.372 216.706 259.638C220.779 260.146 224.787 259.49 228.829 260.43C232.854 261.367 235.246 263.878 235.833 268.018C236.142 270.206 236.433 269.108 238.27 269.621C239.966 270.095 240.924 272.035 241.9 273.35C243.85 275.974 247.494 282.585 244.508 285.679C243.241 286.993 240.163 286.659 238.494 286.883C237.421 287.027 236.129 287.528 235.046 287.269C234.016 287.023 233.331 286.101 232.588 285.426C232.578 289.579 232.553 293.187 229.262 296.186C226.607 298.606 223.056 299.717 219.495 299.472C216.005 299.232 212.422 297.812 210.21 295.007C209.043 293.527 208.213 291.711 207.912 289.846C207.773 288.987 207.733 288.084 207.867 287.22C207.947 286.707 208.435 285.777 208.125 285.282C207.582 284.414 204.922 285.135 204.044 285.224C201.725 285.458 199.414 285.75 197.104 286.06C195.195 286.316 193.248 286.587 191.332 286.225C189.686 285.914 189.056 285.737 189.353 287.685C189.948 291.604 188.956 295.081 185.733 297.491C182.508 299.902 179.531 300.38 175.587 299.745C171.983 299.165 168.687 295.762 167.637 292.376C166.24 287.87 167.68 283.765 171.045 280.689C169.004 279.655 167.651 279.044 166.931 276.656C166.178 274.16 166.882 271.534 167.237 269.031C168.002 263.655 167.704 258.422 167.967 253.029C168.082 250.649 168.574 248.226 168.581 245.853C168.586 244.5 168.511 244.548 167.118 244.537C166.254 244.531 165.338 244.591 164.974 243.584C164.096 241.155 168.216 241.36 169.253 240.393C170.489 239.24 169.635 234.692 169.599 233.091C169.482 227.892 169.996 222.814 170.096 217.629C170.142 215.286 170.285 212.823 170.091 210.489C170.014 209.557 169.481 208.805 169.516 207.878C169.562 206.69 169.79 205.581 169.729 204.346C169.192 193.48 169.074 182.413 170.468 171.619C170.551 170.972 171.008 169.517 170.764 168.868C170.393 167.885 169.218 168.233 168.397 167.873C166.1 166.866 165.532 165.268 165.406 162.927C165.332 161.54 165.259 160.152 165.186 158.765C165.149 158.052 165.113 157.339 165.075 156.627C165.029 155.8 165.369 154.871 165.35 154.178C165.343 153.955 165.247 153.622 165.245 153.491C164.979 153.36 164.876 153.168 164.934 152.914C164.922 152.676 164.96 152.443 165.048 152.217C165.062 152.352 164.888 151.452 164.873 151.532C164.897 151.409 165.348 150.678 165.303 150.59C165.092 150.177 164.646 150.679 164.497 149.909C164.373 149.262 164.794 148.502 164.653 147.745C164.275 145.724 164.631 143.911 164.918 141.866Z" fill="#252525"/>
<path fill-rule="evenodd" clip-rule="evenodd" d="M53.098 173.593C78.6215 173.652 104.205 174.281 129.664 175.035C132.469 175.118 135.284 175.356 138.091 175.476C138.579 175.496 140.185 175.292 140.547 175.815C141.136 176.668 139.788 177.536 139.153 177.925C136.967 179.263 134.075 179.029 131.598 179.114C128.181 179.229 124.763 179.243 121.344 179.195C109.466 179.03 97.5836 178.127 85.7312 177.425C78.4302 176.993 71.1065 176.728 63.7953 176.513C60.1863 176.407 56.5746 176.348 52.9661 176.229C51.9917 176.197 50.2163 176.501 50.2163 175.22C50.2163 173.885 52.1635 173.665 53.098 173.593Z" fill="#252525"/>
<path fill-rule="evenodd" clip-rule="evenodd" d="M83.6224 187.949C101.683 188.728 119.756 189.261 137.819 189.982C138.99 190.029 141.482 189.683 141.922 191.12C142.38 192.614 140.475 194.113 139.215 194.5C137.579 195.003 135.495 194.721 133.787 194.769C131.489 194.834 129.305 194.814 127.014 194.659C118.287 194.068 109.573 193.301 100.844 192.708C95.9014 192.373 90.9629 191.976 86.0282 191.55C84.7122 191.437 80.804 191.789 79.8823 190.717C79.3145 190.056 79.9163 189.035 80.4774 188.526C81.4015 187.687 82.4639 187.877 83.6224 187.949Z" fill="#252525"/>
<path fill-rule="evenodd" clip-rule="evenodd" d="M136.912 207.694C131.043 208.01 125.109 207.545 119.339 206.576C118.553 206.443 116.736 206.428 116.234 205.698C115.467 204.584 116.908 203.611 117.878 203.513C120.565 203.24 123.761 204.177 126.472 204.343C129.309 204.516 132.184 204.213 135.028 204.191C136.653 204.178 138.278 204.167 139.904 204.161C140.858 204.159 142.228 203.917 143.17 204.134C145.804 204.739 142.454 206.957 141.281 207.213C140.874 207.302 136.926 207.887 136.912 207.694Z" fill="#252525"/>
<path fill-rule="evenodd" clip-rule="evenodd" d="M264.992 66.892C265.031 66.2034 264.852 64.4628 265.705 64.1364C267.367 63.5002 267.257 67.5803 267.904 68.1546C270.282 70.2606 269.641 62.1462 271.907 64.7631C273.747 66.8897 272.269 72.0134 269.679 72.9692C267.772 73.6731 266.474 72.3184 265.732 70.7497C265.715 70.7134 264.685 66.8756 264.992 66.892Z" fill="#252525"/>
<path fill-rule="evenodd" clip-rule="evenodd" d="M267.145 57.6019C268.293 57.3834 269.786 58.5754 269.084 59.7297C268.57 60.5739 265.087 61.8826 264.144 61.9047C262.986 61.9322 263.084 61.0109 263.454 60.0729C264.032 58.6048 265.576 57.5851 267.145 57.6019Z" fill="#252525"/>
<path fill-rule="evenodd" clip-rule="evenodd" d="M58.0088 39.1137C58.3614 37.6452 58.8818 35.9054 60.6198 37.321C61.7871 38.272 62.6407 40.6173 62.7578 42.0842C62.898 43.8406 61.9338 44.734 60.3753 43.7485C58.7939 42.7489 58.1906 40.9056 58.0088 39.1137Z" fill="#252525"/>
<path fill-rule="evenodd" clip-rule="evenodd" d="M20.3468 57.5777C19.7814 61.5043 16.2984 57.8499 16.4553 55.4545C16.5368 54.2078 17.2507 53.186 18.6067 53.9337C19.8207 54.6037 20.2433 56.3648 20.3468 57.5777Z" fill="#252525"/>
<path fill-rule="evenodd" clip-rule="evenodd" d="M218.615 287.052C218.874 286.077 218.931 284.07 220.058 283.642C221.726 283.01 222.45 285.782 222.506 286.898C222.566 288.108 222.144 290.678 220.412 290.465C218.992 290.29 218.898 288.111 218.615 287.052Z" fill="#252525"/>
<path fill-rule="evenodd" clip-rule="evenodd" d="M176.623 288.608C176.942 287.414 177.004 285.258 178.438 284.897C180.017 284.499 180.5 286.651 180.519 287.868C180.537 289.005 179.901 291.95 178.292 291.768C177.053 291.627 176.888 289.572 176.623 288.608Z" fill="#252525"/>
</svg>
